# The Great Editor v0.0.1
mtllib floor_1.mtl
o floor_1
v 3.0762519186800663 -106.22082003632563 0
v 3.0762519186800663 -106.22082003632563 -0.1
v 74.90838473094807 -106.0891428378826 0
v 74.90838473094807 -106.0891428378826 -0.1
v 74.69731144641906 -0.40074803217704613 0
v 74.69731144641906 -0.40074803217704613 -0.1
v 2.8808243517657712 -0.5336245831986492 0
v 2.8808243517657712 -0.5336245831986492 -0.1
v 18.9116219496053 -58.82928455892275 0
v 18.9116219496053 -58.82928455892275 -0.1
v 18.81019295489304 -20.816544989155364 0
v 18.81019295489304 -20.816544989155364 -0.1
v 18.808783958347945 -20.052601518758042 0
v 18.808783958347945 -20.052601518758042 -0.1
v 21.950434554886492 -20.06396975020996 0
v 21.950434554886492 -20.06396975020996 -0.1
v 34.93885528412147 -21.37624113431776 0
v 34.93885528412147 -21.37624113431776 -0.1
v 46.3732977960333 -21.355151759751845 0
v 46.3732977960333 -21.355151759751845 -0.1
v 49.32883043968259 -21.36880253963957 0
v 49.32883043968259 -21.36880253963957 -0.1
v 50.41042649203391 -21.36680767331764 0
v 50.41042649203391 -21.36680767331764 -0.1
v 50.428859303643506 -31.360889006739608 0
v 50.428859303643506 -31.360889006739608 -0.1
v 49.81135950143914 -58.934514490927015 0
v 49.81135950143914 -58.934514490927015 -0.1
v 50.700066148127796 -75.21477495448443 0
v 50.700066148127796 -75.21477495448443 -0.1
v 50.71839952640529 -85.15494455543802 0
v 50.71839952640529 -85.15494455543802 -0.1
v 35.16777361570455 -85.18362570663743 0
v 35.16777361570455 -85.18362570663743 -0.1
v 18.908865182693017 -61.89966698343319 0
v 18.908865182693017 -61.89966698343319 -0.1
v 19.441576219040474 -58.82830712569159 0
v 19.441576219040474 -58.82830712569159 -0.1
v 34.95729262626658 -31.37277887761238 0
v 34.95729262626658 -31.37277887761238 -0.1
v 21.951811897295293 -20.810750672681195 0
v 21.951811897295293 -20.810750672681195 -0.1
v 47.14334379197064 -22.655940221341307 0
v 47.14334379197064 -22.655940221341307 -0.1
v 35.63448081202361 -58.96066194013979 0
v 35.63448081202361 -58.96066194013979 -0.1
v 42.811730807571124 -66.10177482784091 0
v 42.811730807571124 -66.10177482784091 -0.1
v 35.149402055742875 -75.22275438827018 0
v 35.149402055742875 -75.22275438827018 -0.1
v 19.44723912017856 -61.898674021195426 0
v 19.44723912017856 -61.898674021195426 -0.1
vt 3.0762519186800663 -106.22082003632563 0
vt 74.90838473094807 -106.0891428378826 0
vt 74.69731144641906 -0.40074803217704613 0
vt 2.8808243517657712 -0.5336245831986492 0
vt 18.9116219496053 -58.82928455892275 0
vt 18.81019295489304 -20.816544989155364 0
vt 18.808783958347945 -20.052601518758042 0
vt 21.950434554886492 -20.06396975020996 0
vt 34.93885528412147 -21.37624113431776 0
vt 46.3732977960333 -21.355151759751845 0
vt 49.32883043968259 -21.36880253963957 0
vt 50.41042649203391 -21.36680767331764 0
vt 50.428859303643506 -31.360889006739608 0
vt 49.81135950143914 -58.934514490927015 0
vt 50.700066148127796 -75.21477495448443 0
vt 50.71839952640529 -85.15494455543802 0
vt 35.16777361570455 -85.18362570663743 0
vt 18.908865182693017 -61.89966698343319 0
vt 19.441576219040474 -58.82830712569159 0
vt 34.95729262626658 -31.37277887761238 0
vt 21.951811897295293 -20.810750672681195 0
vt 47.14334379197064 -22.655940221341307 0
vt 35.63448081202361 -58.96066194013979 0
vt 42.811730807571124 -66.10177482784091 0
vt 35.149402055742875 -75.22275438827018 0
vt 19.44723912017856 -61.898674021195426 0
vn 0 0 1
vn 0 0 -1
usemtl floor_1
s off
f 7/4/1 1/1/1 9/5/1
f 10/5/2 2/1/2 8/4/2
f 7/4/1 9/5/1 11/6/1
f 12/6/2 10/5/2 8/4/2
f 7/4/1 11/6/1 13/7/1
f 14/7/2 12/6/2 8/4/2
f 7/4/1 13/7/1 15/8/1
f 16/8/2 14/7/2 8/4/2
f 7/4/1 15/8/1 17/9/1
f 18/9/2 16/8/2 8/4/2
f 7/4/1 17/9/1 5/3/1
f 6/3/2 18/9/2 8/4/2
f 5/3/1 17/9/1 19/10/1
f 20/10/2 18/9/2 6/3/2
f 5/3/1 19/10/1 21/11/1
f 22/11/2 20/10/2 6/3/2
f 5/3/1 21/11/1 23/12/1
f 24/12/2 22/11/2 6/3/2
f 5/3/1 23/12/1 25/13/1
f 26/13/2 24/12/2 6/3/2
f 5/3/1 25/13/1 27/14/1
f 28/14/2 26/13/2 6/3/2
f 5/3/1 27/14/1 3/2/1
f 4/2/2 28/14/2 6/3/2
f 3/2/1 27/14/1 29/15/1
f 30/15/2 28/14/2 4/2/2
f 3/2/1 29/15/1 31/16/1
f 32/16/2 30/15/2 4/2/2
f 3/2/1 31/16/1 33/17/1
f 34/17/2 32/16/2 4/2/2
f 3/2/1 33/17/1 1/1/1
f 2/1/2 34/17/2 4/2/2
f 1/1/1 33/17/1 35/18/1
f 36/18/2 34/17/2 2/1/2
f 1/1/1 35/18/1 9/5/1
f 10/5/2 36/18/2 2/1/2
f 9/5/1 37/19/1 39/20/1
f 40/20/2 38/19/2 10/5/2
f 9/5/1 39/20/1 11/6/1
f 12/6/2 40/20/2 10/5/2
f 11/6/1 39/20/1 41/21/1
f 42/21/2 40/20/2 12/6/2
f 15/8/1 41/21/1 17/9/1
f 18/9/2 42/21/2 16/8/2
f 17/9/1 41/21/1 39/20/1
f 40/20/2 42/21/2 18/9/2
f 19/10/1 43/22/1 21/11/1
f 22/11/2 44/22/2 20/10/2
f 25/13/1 39/20/1 27/14/1
f 28/14/2 40/20/2 26/13/2
f 27/14/1 39/20/1 45/23/1
f 46/23/2 40/20/2 28/14/2
f 27/14/1 47/24/1 29/15/1
f 30/15/2 48/24/2 28/14/2
f 29/15/1 47/24/1 49/25/1
f 50/25/2 48/24/2 30/15/2
f 33/17/1 49/25/1 35/18/1
f 36/18/2 50/25/2 34/17/2
f 35/18/1 49/25/1 51/26/1
f 52/26/2 50/25/2 36/18/2
f 51/26/1 49/25/1 45/23/1
f 46/23/2 50/25/2 52/26/2
f 51/26/1 45/23/1 37/19/1
f 38/19/2 46/23/2 52/26/2
f 37/19/1 45/23/1 39/20/1
f 40/20/2 46/23/2 38/19/2
f 45/23/1 49/25/1 47/24/1
f 48/24/2 50/25/2 46/23/2
