# The Great Editor v0.0.1
mtllib floor_1.mtl
o floor_1
v 3.5302609770444264 -7.691635001368354 0
v 3.5302609770444264 -7.691635001368354 -0.1
v 31.589115842718623 -7.691635001368354 0
v 31.589115842718623 -7.691635001368354 -0.1
v 31.743306302701665 -43.22774095580987 0
v 31.743306302701665 -43.22774095580987 -0.1
v 31.126612477970202 -45.540291787152334 0
v 31.126612477970202 -45.540291787152334 -0.1
v 34.055857134044125 -45.46319655716081 0
v 34.055857134044125 -45.46319655716081 -0.1
v 34.518360498792546 -52.632100733562396 0
v 34.518360498792546 -52.632100733562396 -0.1
v 3.7615126594186377 -52.70916195595357 0
v 3.7615126594186377 -52.70916195595357 -0.1
v 14.675480959910095 -35.658170375334834 0
v 14.675480959910095 -35.658170375334834 -0.1
v 16.475480959910094 -35.658170375334834 0
v 16.475480959910094 -35.658170375334834 -0.1
v 16.475480959910094 -37.45817037533483 0
v 16.475480959910094 -37.45817037533483 -0.1
v 14.675480959910095 -37.45817037533483 0
v 14.675480959910095 -37.45817037533483 -0.1
vt 3.5302609770444264 -7.691635001368354 0
vt 31.589115842718623 -7.691635001368354 0
vt 31.743306302701665 -43.22774095580987 0
vt 31.126612477970202 -45.540291787152334 0
vt 34.055857134044125 -45.46319655716081 0
vt 34.518360498792546 -52.632100733562396 0
vt 3.7615126594186377 -52.70916195595357 0
vt 14.675480959910095 -35.658170375334834 0
vt 16.475480959910094 -35.658170375334834 0
vt 16.475480959910094 -37.45817037533483 0
vt 14.675480959910095 -37.45817037533483 0
vn 0 0 1
vn 0 0 -1
usemtl floor_1
s off
f 1/1/1 13/7/1 15/8/1
f 16/8/2 14/7/2 2/1/2
f 1/1/1 15/8/1 17/9/1
f 18/9/2 16/8/2 2/1/2
f 1/1/1 17/9/1 3/2/1
f 4/2/2 18/9/2 2/1/2
f 3/2/1 17/9/1 5/3/1
f 6/3/2 18/9/2 4/2/2
f 9/5/1 7/4/1 11/6/1
f 12/6/2 8/4/2 10/5/2
f 11/6/1 7/4/1 13/7/1
f 14/7/2 8/4/2 12/6/2
f 13/7/1 7/4/1 19/10/1
f 20/10/2 8/4/2 14/7/2
f 13/7/1 19/10/1 21/11/1
f 22/11/2 20/10/2 14/7/2
f 13/7/1 21/11/1 15/8/1
f 16/8/2 22/11/2 14/7/2
f 17/9/1 19/10/1 5/3/1
f 6/3/2 20/10/2 18/9/2
f 5/3/1 19/10/1 7/4/1
f 8/4/2 20/10/2 6/3/2
