# The Great Editor v0.0.1
mtllib floor_1.mtl
o floor_1
v 0.012022415784204791 -0.04438545935465877 0
v 0.012022415784204791 -0.04438545935465877 -0.1
v 10.020521091056528 -0.04438545935465877 0
v 10.020521091056528 -0.04438545935465877 -0.1
v 9.977955240577316 -6.411456858669516 0
v 9.977955240577316 -6.411456858669516 -0.1
v -0.022030264599164455 -6.428483198861201 0
v -0.022030264599164455 -6.428483198861201 -0.1
vt 0.012022415784204791 -0.04438545935465877 0
vt 10.020521091056528 -0.04438545935465877 0
vt 9.977955240577316 -6.411456858669516 0
vt -0.022030264599164455 -6.428483198861201 0
vn 0 0 1
vn 0 0 -1
usemtl floor_1
s off
f 1/1/1 7/4/1 5/3/1
f 6/3/2 8/4/2 2/1/2
f 1/1/1 5/3/1 3/2/1
f 4/2/2 6/3/2 2/1/2
