# The Great Editor v0.0.1
mtllib floor_1.mtl
o floor_1
v 72.80880747321548 -105.12037041677688 0
v 72.80880747321548 -105.12037041677688 -0.1
v 73.02815321659689 -2.86592625790119 0
v 73.02815321659689 -2.86592625790119 -0.1
v 3.5218008103504124 -2.731523987779823 0
v 3.5218008103504124 -2.731523987779823 -0.1
v 3.3353632534367366 -104.99407134851465 0
v 3.3353632534367366 -104.99407134851465 -0.1
v 13.012460783638433 -10.06753068641082 0
v 13.012460783638433 -10.06753068641082 -0.1
v 13.000689016289797 -16.13695503966478 0
v 13.000689016289797 -16.13695503966478 -0.1
v 23.122318741906746 -10.10040235980031 0
v 23.122318741906746 -10.10040235980031 -0.1
v 23.127813106160872 -7.2675543071676785 0
v 23.127813106160872 -7.2675543071676785 -0.1
v 23.517525394869505 -7.159680140426559 0
v 23.517525394869505 -7.159680140426559 -0.1
v 23.134744846874337 -3.693607027142333 0
v 23.134744846874337 -3.693607027142333 -0.1
v 23.55111725497422 -3.6944145895787797 0
v 23.55111725497422 -3.6944145895787797 -0.1
v 39.20199815273735 -3.468979990309113 0
v 39.20199815273735 -3.468979990309113 -0.1
v 38.99030751853075 -3.6020949979697106 0
v 38.99030751853075 -3.6020949979697106 -0.1
v 41.06425386653914 -7.211605449203213 0
v 41.06425386653914 -7.211605449203213 -0.1
v 41.71392620985882 -3.5262017114203834 0
v 41.71392620985882 -3.5262017114203834 -0.1
v 41.46342231149421 -3.550756789293983 0
v 41.46342231149421 -3.550756789293983 -0.1
v 42.86054159761675 -6.3711738980836365 0
v 42.86054159761675 -6.3711738980836365 -0.1
v 43.145349599162174 -6.36520616240871 0
v 43.145349599162174 -6.36520616240871 -0.1
v 51.06845467585579 -4.915699847400338 0
v 51.06845467585579 -4.915699847400338 -0.1
v 50.040215954678544 -4.905728745720168 0
v 50.040215954678544 -4.905728745720168 -0.1
v 49.210900237204854 -5.07152384957188 0
v 49.210900237204854 -5.07152384957188 -0.1
v 53.81399409290784 -5.924382767362709 0
v 53.81399409290784 -5.924382767362709 -0.1
v 51.87328347952404 -5.0368191720404445 0
v 51.87328347952404 -5.0368191720404445 -0.1
v 52.900919251488766 -5.3576658224751 0
v 52.900919251488766 -5.3576658224751 -0.1
v 45.45031156444372 -8.292477435461745 0
v 45.45031156444372 -8.292477435461745 -0.1
v 56.2414385954659 -10.412778974688152 0
v 56.2414385954659 -10.412778974688152 -0.1
v 54.485517304482364 -6.456252720119226 0
v 54.485517304482364 -6.456252720119226 -0.1
v 67.06303822224949 -15.482386187750969 0
v 67.06303822224949 -15.482386187750969 -0.1
v 65.31682998219975 -15.47899938268549 0
v 65.31682998219975 -15.47899938268549 -0.1
v 66.76779879254674 -15.734193657905536 0
v 66.76779879254674 -15.734193657905536 -0.1
v 66.75820496536282 -20.680690358572036 0
v 66.75820496536282 -20.680690358572036 -0.1
v 67.01400160897829 -40.765252045939654 0
v 67.01400160897829 -40.765252045939654 -0.1
v 52.80249618019294 -79.89337013135852 0
v 52.80249618019294 -79.89337013135852 -0.1
v 50.23254037725068 -84.52166682815218 0
v 50.23254037725068 -84.52166682815218 -0.1
v 52.769624942795375 -96.84150399041434 0
v 52.769624942795375 -96.84150399041434 -0.1
v 50.84561099179522 -96.04662852687643 0
v 50.84561099179522 -96.04662852687643 -0.1
v 34.54540295146769 -98.80370762231702 0
v 34.54540295146769 -98.80370762231702 -0.1
v 34.55081165708239 -96.01502444457857 0
v 34.55081165708239 -96.01502444457857 -0.1
v 29.134627468938127 -98.79257204418101 0
v 29.134627468938127 -98.79257204418101 -0.1
v 29.14004761105177 -95.99799230365925 0
v 29.14004761105177 -95.99799230365925 -0.1
v 12.820614094949923 -95.96634044288433 0
v 12.820614094949923 -95.96634044288433 -0.1
v 12.832481146232778 -89.84778849360312 0
v 12.832481146232778 -89.84778849360312 -0.1
v 12.34256593121785 -89.84683829345298 0
v 12.34256593121785 -89.84683829345298 -0.1
v 12.382320870021822 -69.34952581752246 0
v 12.382320870021822 -69.34952581752246 -0.1
v 12.97713382279397 -44.05556526842384 0
v 12.97713382279397 -44.05556526842384 -0.1
v 12.901993541841819 -68.48819181846461 0
v 12.901993541841819 -68.48819181846461 -0.1
v 18.96432995150686 -58.44014283200664 0
v 18.96432995150686 -58.44014283200664 -0.1
v 12.982935208191579 -42.16918580461959 0
v 12.982935208191579 -42.16918580461959 -0.1
v 12.073255917399262 -41.88394744287683 0
v 12.073255917399262 -41.88394744287683 -0.1
v 19.008979618978607 -20.887335398425634 0
v 19.008979618978607 -20.887335398425634 -0.1
v 12.12143943458701 -17.040930758670505 0
v 12.12143943458701 -17.040930758670505 -0.1
v 12.746033181027213 -16.842581089399246 0
v 12.746033181027213 -16.842581089399246 -0.1
v 12.247438634460268 -16.69579479391117 0
v 12.247438634460268 -16.69579479391117 -0.1
v 19.010418130331914 -20.145651029239794 0
v 19.010418130331914 -20.145651029239794 -0.1
v 22.110097821299032 -20.137680035501347 0
v 22.110097821299032 -20.137680035501347 -0.1
v 31.67111531124968 -13.842013849854231 0
v 31.67111531124968 -13.842013849854231 -0.1
v 33.05225029788788 -13.034260082494457 0
v 33.05225029788788 -13.034260082494457 -0.1
v 35.522785175252785 -7.808413332953822 0
v 35.522785175252785 -7.808413332953822 -0.1
v 37.01862340851937 -4.644312538111986 0
v 37.01862340851937 -4.644312538111986 -0.1
v 38.696027844260044 -7.979887160674949 0
v 38.696027844260044 -7.979887160674949 -0.1
v 44.096693606056455 -8.252048231762057 0
v 44.096693606056455 -8.252048231762057 -0.1
v 43.23687778898993 -6.546738014028344 0
v 43.23687778898993 -6.546738014028344 -0.1
v 43.18818020347166 -6.450153968335178 0
v 43.18818020347166 -6.450153968335178 -0.1
v 43.16581263268644 -6.405791389456296 0
v 43.16581263268644 -6.405791389456296 -0.1
v 46.896957147022135 -6.2865967059320615 0
v 46.896957147022135 -6.2865967059320615 -0.1
v 46.393836542975535 -6.771846720711895 0
v 46.393836542975535 -6.771846720711895 -0.1
v 47.599449144403536 -5.745926969629372 0
v 47.599449144403536 -5.745926969629372 -0.1
v 48.389406742694895 -5.317024046249236 0
v 48.389406742694895 -5.317024046249236 -0.1
v 46.074273225213005 -7.145871217573371 0
v 46.074273225213005 -7.145871217573371 -0.1
v 45.698563619385595 -7.695135926464243 0
v 45.698563619385595 -7.695135926464243 -0.1
v 46.25123847833037 -21.52987771166579 0
v 46.25123847833037 -21.52987771166579 -0.1
v 53.19240831732951 -17.571450664888786 0
v 53.19240831732951 -17.571450664888786 -0.1
v 54.12205409297979 -17.10216820706803 0
v 54.12205409297979 -17.10216820706803 -0.1
v 54.971009391876585 -16.592329039035636 0
v 54.971009391876585 -16.592329039035636 -0.1
v 55.591156127396516 -16.08206173312433 0
v 55.591156127396516 -16.08206173312433 -0.1
v 56.41378364860333 -15.276059707290301 0
v 56.41378364860333 -15.276059707290301 -0.1
v 57.021038041094634 -14.469639961056963 0
v 57.021038041094634 -14.469639961056963 -0.1
v 57.49409535023935 -13.461068375354074 0
v 57.49409535023935 -13.461068375354074 -0.1
v 57.853531805944904 -12.503984934086578 0
v 57.853531805944904 -12.503984934086578 -0.1
v 59.17497540712764 -10.609614952629617 0
v 59.17497540712764 -10.609614952629617 -0.1
v 59.175346137773964 -10.418469345800851 0
v 59.175346137773964 -10.418469345800851 -0.1
v 56.212940522305374 -9.695326719170588 0
v 56.212940522305374 -9.695326719170588 -0.1
v 55.566468332573315 -7.80345881331864 0
v 55.566468332573315 -7.80345881331864 -0.1
v 55.067212682533 -7.070140900933168 0
v 55.067212682533 -7.070140900933168 -0.1
v 55.96095812272946 -8.611274033692078 0
v 55.96095812272946 -8.611274033692078 -0.1
v 65.16271373698812 -15.731080564019017 0
v 65.16271373698812 -15.731080564019017 -0.1
v 53.186428939517896 -20.65436763328782 0
v 53.186428939517896 -20.65436763328782 -0.1
v 50.2186731223695 -31.36689823023888 0
v 50.2186731223695 -31.36689823023888 -0.1
v 53.4420215218933 -54.28727914996468 0
v 53.4420215218933 -54.28727914996468 -0.1
v 66.98765962062555 -54.346959948090635 0
v 66.98765962062555 -54.346959948090635 -0.1
v 52.85095971632525 -54.90597803170588 0
v 52.85095971632525 -54.90597803170588 -0.1
v 49.49856427559396 -58.64335386417893 0
v 49.49856427559396 -58.64335386417893 -0.1
v 52.84530560751712 -57.82118903440797 0
v 52.84530560751712 -57.82118903440797 -0.1
v 50.25150900901265 -74.74159964245648 0
v 50.25150900901265 -74.74159964245648 -0.1
v 52.818555340254804 -71.61340211248803 0
v 52.818555340254804 -71.61340211248803 -0.1
v 34.92869204588048 -84.49198471472423 0
v 34.92869204588048 -84.49198471472423 -0.1
v 12.899341504939724 -69.35052858916514 0
v 12.899341504939724 -69.35052858916514 -0.1
v 18.899051516356085 -61.48518787597902 0
v 18.899051516356085 -61.48518787597902 -0.1
v 12.901270606910131 -68.72326146396038 0
v 12.901270606910131 -68.72326146396038 -0.1
v 12.90193950925582 -68.50576106332899 0
v 12.90193950925582 -68.50576106332899 -0.1
v 18.959647104906356 -58.6691621146176 0
v 18.959647104906356 -58.6691621146176 -0.1
v 19.486053466057758 -58.41146846963743 0
v 19.486053466057758 -58.41146846963743 -0.1
v 22.093943996088925 -52.718906916101474 0
v 22.093943996088925 -52.718906916101474 -0.1
v 22.096810769823662 -51.51891034043621 0
v 22.096810769823662 -51.51891034043621 -0.1
v 23.69680620404401 -51.52273270541586 0
v 23.69680620404401 -51.52273270541586 -0.1
v 34.915575547003534 -31.337217572916888 0
v 34.915575547003534 -31.337217572916888 -0.1
v 22.10863218997209 -20.893347235266102 0
v 22.10863218997209 -20.893347235266102 -0.1
v 34.93464219289842 -21.506615123685997 0
v 34.93464219289842 -21.506615123685997 -0.1
v 32.47886907860945 -15.22314883649243 0
v 32.47886907860945 -15.22314883649243 -0.1
v 33.86000406524765 -14.415395069132655 0
v 33.86000406524765 -14.415395069132655 -0.1
v 47.02084047406458 -22.749648617751998 0
v 47.02084047406458 -22.749648617751998 -0.1
v 49.17033397094824 -21.487287458985612 0
v 49.17033397094824 -21.487287458985612 -0.1
v 50.23783080522286 -21.489357889993087 0
v 50.23783080522286 -21.489357889993087 -0.1
v 35.42049716939169 -58.61604917743317 0
v 35.42049716939169 -58.61604917743317 -0.1
v 42.53785381151854 -65.71729830446723 0
v 42.53785381151854 -65.71729830446723 -0.1
v 34.9476778778942 -74.70304922372848 0
v 34.9476778778942 -74.70304922372848 -0.1
v 19.484344826522417 -61.47784574537468 0
v 19.484344826522417 -61.47784574537468 -0.1
v 23.69393943030927 -52.72272928108113 0
v 23.69393943030927 -52.72272928108113 -0.1
vt 72.80880747321548 -105.12037041677688 0
vt 73.02815321659689 -2.86592625790119 0
vt 3.5218008103504124 -2.731523987779823 0
vt 3.3353632534367366 -104.99407134851465 0
vt 13.012460783638433 -10.06753068641082 0
vt 13.000689016289797 -16.13695503966478 0
vt 23.122318741906746 -10.10040235980031 0
vt 23.127813106160872 -7.2675543071676785 0
vt 23.517525394869505 -7.159680140426559 0
vt 23.134744846874337 -3.693607027142333 0
vt 23.55111725497422 -3.6944145895787797 0
vt 39.20199815273735 -3.468979990309113 0
vt 38.99030751853075 -3.6020949979697106 0
vt 41.06425386653914 -7.211605449203213 0
vt 41.71392620985882 -3.5262017114203834 0
vt 41.46342231149421 -3.550756789293983 0
vt 42.86054159761675 -6.3711738980836365 0
vt 43.145349599162174 -6.36520616240871 0
vt 51.06845467585579 -4.915699847400338 0
vt 50.040215954678544 -4.905728745720168 0
vt 49.210900237204854 -5.07152384957188 0
vt 53.81399409290784 -5.924382767362709 0
vt 51.87328347952404 -5.0368191720404445 0
vt 52.900919251488766 -5.3576658224751 0
vt 45.45031156444372 -8.292477435461745 0
vt 56.2414385954659 -10.412778974688152 0
vt 54.485517304482364 -6.456252720119226 0
vt 67.06303822224949 -15.482386187750969 0
vt 65.31682998219975 -15.47899938268549 0
vt 66.76779879254674 -15.734193657905536 0
vt 66.75820496536282 -20.680690358572036 0
vt 67.01400160897829 -40.765252045939654 0
vt 52.80249618019294 -79.89337013135852 0
vt 50.23254037725068 -84.52166682815218 0
vt 52.769624942795375 -96.84150399041434 0
vt 50.84561099179522 -96.04662852687643 0
vt 34.54540295146769 -98.80370762231702 0
vt 34.55081165708239 -96.01502444457857 0
vt 29.134627468938127 -98.79257204418101 0
vt 29.14004761105177 -95.99799230365925 0
vt 12.820614094949923 -95.96634044288433 0
vt 12.832481146232778 -89.84778849360312 0
vt 12.34256593121785 -89.84683829345298 0
vt 12.382320870021822 -69.34952581752246 0
vt 12.97713382279397 -44.05556526842384 0
vt 12.901993541841819 -68.48819181846461 0
vt 18.96432995150686 -58.44014283200664 0
vt 12.982935208191579 -42.16918580461959 0
vt 12.073255917399262 -41.88394744287683 0
vt 19.008979618978607 -20.887335398425634 0
vt 12.12143943458701 -17.040930758670505 0
vt 12.746033181027213 -16.842581089399246 0
vt 12.247438634460268 -16.69579479391117 0
vt 19.010418130331914 -20.145651029239794 0
vt 22.110097821299032 -20.137680035501347 0
vt 31.67111531124968 -13.842013849854231 0
vt 33.05225029788788 -13.034260082494457 0
vt 35.522785175252785 -7.808413332953822 0
vt 37.01862340851937 -4.644312538111986 0
vt 38.696027844260044 -7.979887160674949 0
vt 44.096693606056455 -8.252048231762057 0
vt 43.23687778898993 -6.546738014028344 0
vt 43.18818020347166 -6.450153968335178 0
vt 43.16581263268644 -6.405791389456296 0
vt 46.896957147022135 -6.2865967059320615 0
vt 46.393836542975535 -6.771846720711895 0
vt 47.599449144403536 -5.745926969629372 0
vt 48.389406742694895 -5.317024046249236 0
vt 46.074273225213005 -7.145871217573371 0
vt 45.698563619385595 -7.695135926464243 0
vt 46.25123847833037 -21.52987771166579 0
vt 53.19240831732951 -17.571450664888786 0
vt 54.12205409297979 -17.10216820706803 0
vt 54.971009391876585 -16.592329039035636 0
vt 55.591156127396516 -16.08206173312433 0
vt 56.41378364860333 -15.276059707290301 0
vt 57.021038041094634 -14.469639961056963 0
vt 57.49409535023935 -13.461068375354074 0
vt 57.853531805944904 -12.503984934086578 0
vt 59.17497540712764 -10.609614952629617 0
vt 59.175346137773964 -10.418469345800851 0
vt 56.212940522305374 -9.695326719170588 0
vt 55.566468332573315 -7.80345881331864 0
vt 55.067212682533 -7.070140900933168 0
vt 55.96095812272946 -8.611274033692078 0
vt 65.16271373698812 -15.731080564019017 0
vt 53.186428939517896 -20.65436763328782 0
vt 50.2186731223695 -31.36689823023888 0
vt 53.4420215218933 -54.28727914996468 0
vt 66.98765962062555 -54.346959948090635 0
vt 52.85095971632525 -54.90597803170588 0
vt 49.49856427559396 -58.64335386417893 0
vt 52.84530560751712 -57.82118903440797 0
vt 50.25150900901265 -74.74159964245648 0
vt 52.818555340254804 -71.61340211248803 0
vt 34.92869204588048 -84.49198471472423 0
vt 12.899341504939724 -69.35052858916514 0
vt 18.899051516356085 -61.48518787597902 0
vt 12.901270606910131 -68.72326146396038 0
vt 12.90193950925582 -68.50576106332899 0
vt 18.959647104906356 -58.6691621146176 0
vt 19.486053466057758 -58.41146846963743 0
vt 22.093943996088925 -52.718906916101474 0
vt 22.096810769823662 -51.51891034043621 0
vt 23.69680620404401 -51.52273270541586 0
vt 34.915575547003534 -31.337217572916888 0
vt 22.10863218997209 -20.893347235266102 0
vt 34.93464219289842 -21.506615123685997 0
vt 32.47886907860945 -15.22314883649243 0
vt 33.86000406524765 -14.415395069132655 0
vt 47.02084047406458 -22.749648617751998 0
vt 49.17033397094824 -21.487287458985612 0
vt 50.23783080522286 -21.489357889993087 0
vt 35.42049716939169 -58.61604917743317 0
vt 42.53785381151854 -65.71729830446723 0
vt 34.9476778778942 -74.70304922372848 0
vt 19.484344826522417 -61.47784574537468 0
vt 23.69393943030927 -52.72272928108113 0
vn 0 0 1
vn 0 0 -1
usemtl floor_1
s off
f 9/5/1 11/6/1 13/7/1
f 14/7/2 12/6/2 10/5/2
f 15/8/1 13/7/1 17/9/1
f 18/9/2 14/7/2 16/8/2
f 15/8/1 17/9/1 19/10/1
f 20/10/2 18/9/2 16/8/2
f 19/10/1 17/9/1 21/11/1
f 22/11/2 18/9/2 20/10/2
f 23/12/1 25/13/1 27/14/1
f 28/14/2 26/13/2 24/12/2
f 29/15/1 31/16/1 33/17/1
f 34/17/2 32/16/2 30/15/2
f 29/15/1 33/17/1 35/18/1
f 36/18/2 34/17/2 30/15/2
f 37/19/1 39/20/1 41/21/1
f 42/21/2 40/20/2 38/19/2
f 37/19/1 41/21/1 43/22/1
f 44/22/2 42/21/2 38/19/2
f 37/19/1 43/22/1 45/23/1
f 46/23/2 44/22/2 38/19/2
f 45/23/1 43/22/1 47/24/1
f 48/24/2 44/22/2 46/23/2
f 43/22/1 41/21/1 49/25/1
f 50/25/2 42/21/2 44/22/2
f 43/22/1 49/25/1 51/26/1
f 52/26/2 50/25/2 44/22/2
f 43/22/1 51/26/1 53/27/1
f 54/27/2 52/26/2 44/22/2
f 55/28/1 57/29/1 59/30/1
f 60/30/2 58/29/2 56/28/2
f 55/28/1 59/30/1 61/31/1
f 62/31/2 60/30/2 56/28/2
f 55/28/1 61/31/1 63/32/1
f 64/32/2 62/31/2 56/28/2
f 65/33/1 67/34/1 69/35/1
f 70/35/2 68/34/2 66/33/2
f 69/35/1 67/34/1 71/36/1
f 72/36/2 68/34/2 70/35/2
f 73/37/1 75/38/1 77/39/1
f 78/39/2 76/38/2 74/37/2
f 77/39/1 75/38/1 79/40/1
f 80/40/2 76/38/2 78/39/2
f 81/41/1 79/40/1 83/42/1
f 84/42/2 80/40/2 82/41/2
f 85/43/1 83/42/1 87/44/1
f 88/44/2 84/42/2 86/43/2
f 89/45/1 91/46/1 93/47/1
f 94/47/2 92/46/2 90/45/2
f 95/48/1 89/45/1 93/47/1
f 94/47/2 90/45/2 96/48/2
f 97/49/1 95/48/1 99/50/1
f 100/50/2 96/48/2 98/49/2
f 97/49/1 99/50/1 101/51/1
f 102/51/2 100/50/2 98/49/2
f 101/51/1 99/50/1 103/52/1
f 104/52/2 100/50/2 102/51/2
f 101/51/1 103/52/1 105/53/1
f 106/53/2 104/52/2 102/51/2
f 11/6/1 103/52/1 107/54/1
f 108/54/2 104/52/2 12/6/2
f 11/6/1 107/54/1 13/7/1
f 14/7/2 108/54/2 12/6/2
f 13/7/1 107/54/1 109/55/1
f 110/55/2 108/54/2 14/7/2
f 13/7/1 109/55/1 111/56/1
f 112/56/2 110/55/2 14/7/2
f 13/7/1 111/56/1 17/9/1
f 18/9/2 112/56/2 14/7/2
f 17/9/1 111/56/1 113/57/1
f 114/57/2 112/56/2 18/9/2
f 17/9/1 113/57/1 115/58/1
f 116/58/2 114/57/2 18/9/2
f 25/13/1 117/59/1 119/60/1
f 120/60/2 118/59/2 26/13/2
f 25/13/1 119/60/1 27/14/1
f 28/14/2 120/60/2 26/13/2
f 27/14/1 119/60/1 121/61/1
f 122/61/2 120/60/2 28/14/2
f 27/14/1 121/61/1 33/17/1
f 34/17/2 122/61/2 28/14/2
f 33/17/1 121/61/1 123/62/1
f 124/62/2 122/61/2 34/17/2
f 33/17/1 123/62/1 125/63/1
f 126/63/2 124/62/2 34/17/2
f 125/63/1 127/64/1 33/17/1
f 34/17/2 128/64/2 126/63/2
f 33/17/1 127/64/1 35/18/1
f 36/18/2 128/64/2 34/17/2
f 129/65/1 131/66/1 49/25/1
f 50/25/2 132/66/2 130/65/2
f 129/65/1 49/25/1 41/21/1
f 42/21/2 50/25/2 130/65/2
f 129/65/1 41/21/1 133/67/1
f 134/67/2 42/21/2 130/65/2
f 133/67/1 41/21/1 135/68/1
f 136/68/2 42/21/2 134/67/2
f 49/25/1 131/66/1 137/69/1
f 138/69/2 132/66/2 50/25/2
f 49/25/1 137/69/1 139/70/1
f 140/70/2 138/69/2 50/25/2
f 49/25/1 121/61/1 141/71/1
f 142/71/2 122/61/2 50/25/2
f 49/25/1 141/71/1 143/72/1
f 144/72/2 142/71/2 50/25/2
f 49/25/1 143/72/1 51/26/1
f 52/26/2 144/72/2 50/25/2
f 51/26/1 143/72/1 145/73/1
f 146/73/2 144/72/2 52/26/2
f 51/26/1 145/73/1 147/74/1
f 148/74/2 146/73/2 52/26/2
f 51/26/1 147/74/1 149/75/1
f 150/75/2 148/74/2 52/26/2
f 51/26/1 149/75/1 151/76/1
f 152/76/2 150/75/2 52/26/2
f 51/26/1 151/76/1 153/77/1
f 154/77/2 152/76/2 52/26/2
f 51/26/1 153/77/1 155/78/1
f 156/78/2 154/77/2 52/26/2
f 51/26/1 155/78/1 157/79/1
f 158/79/2 156/78/2 52/26/2
f 51/26/1 157/79/1 159/80/1
f 160/80/2 158/79/2 52/26/2
f 51/26/1 159/80/1 161/81/1
f 162/81/2 160/80/2 52/26/2
f 51/26/1 163/82/1 165/83/1
f 166/83/2 164/82/2 52/26/2
f 51/26/1 165/83/1 167/84/1
f 168/84/2 166/83/2 52/26/2
f 51/26/1 167/84/1 53/27/1
f 54/27/2 168/84/2 52/26/2
f 163/82/1 169/85/1 165/83/1
f 166/83/2 170/85/2 164/82/2
f 57/29/1 171/86/1 59/30/1
f 60/30/2 172/86/2 58/29/2
f 61/31/1 173/87/1 175/88/1
f 176/88/2 174/87/2 62/31/2
f 61/31/1 175/88/1 63/32/1
f 64/32/2 176/88/2 62/31/2
f 63/32/1 175/88/1 177/89/1
f 178/89/2 176/88/2 64/32/2
f 63/32/1 177/89/1 179/90/1
f 180/90/2 178/89/2 64/32/2
f 181/91/1 183/92/1 185/93/1
f 186/93/2 184/92/2 182/91/2
f 183/92/1 187/94/1 189/95/1
f 190/95/2 188/94/2 184/92/2
f 183/92/1 189/95/1 185/93/1
f 186/93/2 190/95/2 184/92/2
f 189/95/1 187/94/1 65/33/1
f 66/33/2 188/94/2 190/95/2
f 67/34/1 65/33/1 187/94/1
f 188/94/2 66/33/2 68/34/2
f 67/34/1 191/96/1 75/38/1
f 76/38/2 192/96/2 68/34/2
f 67/34/1 75/38/1 71/36/1
f 72/36/2 76/38/2 68/34/2
f 75/38/1 191/96/1 79/40/1
f 80/40/2 192/96/2 76/38/2
f 79/40/1 191/96/1 83/42/1
f 84/42/2 192/96/2 80/40/2
f 83/42/1 191/96/1 193/97/1
f 194/97/2 192/96/2 84/42/2
f 83/42/1 193/97/1 87/44/1
f 88/44/2 194/97/2 84/42/2
f 195/98/1 197/99/1 193/97/1
f 194/97/2 198/99/2 196/98/2
f 199/100/1 195/98/1 201/101/1
f 202/101/2 196/98/2 200/100/2
f 197/99/1 195/98/1 199/100/1
f 200/100/2 196/98/2 198/99/2
f 91/46/1 201/101/1 93/47/1
f 94/47/2 202/101/2 92/46/2
f 199/100/1 201/101/1 91/46/1
f 92/46/2 202/101/2 200/100/2
f 93/47/1 203/102/1 205/103/1
f 206/103/2 204/102/2 94/47/2
f 93/47/1 205/103/1 207/104/1
f 208/104/2 206/103/2 94/47/2
f 93/47/1 207/104/1 95/48/1
f 96/48/2 208/104/2 94/47/2
f 95/48/1 207/104/1 209/105/1
f 210/105/2 208/104/2 96/48/2
f 95/48/1 209/105/1 211/106/1
f 212/106/2 210/105/2 96/48/2
f 95/48/1 211/106/1 213/107/1
f 214/107/2 212/106/2 96/48/2
f 95/48/1 213/107/1 99/50/1
f 100/50/2 214/107/2 96/48/2
f 99/50/1 107/54/1 103/52/1
f 104/52/2 108/54/2 100/50/2
f 109/55/1 213/107/1 215/108/1
f 216/108/2 214/107/2 110/55/2
f 109/55/1 215/108/1 217/109/1
f 218/109/2 216/108/2 110/55/2
f 109/55/1 217/109/1 111/56/1
f 112/56/2 218/109/2 110/55/2
f 113/57/1 219/110/1 119/60/1
f 120/60/2 220/110/2 114/57/2
f 115/58/1 113/57/1 119/60/1
f 120/60/2 114/57/2 116/58/2
f 119/60/1 219/110/1 121/61/1
f 122/61/2 220/110/2 120/60/2
f 121/61/1 219/110/1 141/71/1
f 142/71/2 220/110/2 122/61/2
f 141/71/1 219/110/1 215/108/1
f 216/108/2 220/110/2 142/71/2
f 141/71/1 221/111/1 223/112/1
f 224/112/2 222/111/2 142/71/2
f 141/71/1 223/112/1 143/72/1
f 144/72/2 224/112/2 142/71/2
f 143/72/1 223/112/1 225/113/1
f 226/113/2 224/112/2 144/72/2
f 143/72/1 225/113/1 173/87/1
f 174/87/2 226/113/2 144/72/2
f 173/87/1 225/113/1 175/88/1
f 176/88/2 226/113/2 174/87/2
f 175/88/1 211/106/1 177/89/1
f 178/89/2 212/106/2 176/88/2
f 177/89/1 211/106/1 181/91/1
f 182/91/2 212/106/2 178/89/2
f 181/91/1 211/106/1 227/114/1
f 228/114/2 212/106/2 182/91/2
f 181/91/1 227/114/1 183/92/1
f 184/92/2 228/114/2 182/91/2
f 183/92/1 229/115/1 187/94/1
f 188/94/2 230/115/2 184/92/2
f 187/94/1 229/115/1 231/116/1
f 232/116/2 230/115/2 188/94/2
f 191/96/1 231/116/1 193/97/1
f 194/97/2 232/116/2 192/96/2
f 193/97/1 231/116/1 233/117/1
f 234/117/2 232/116/2 194/97/2
f 193/97/1 233/117/1 195/98/1
f 196/98/2 234/117/2 194/97/2
f 203/102/1 233/117/1 227/114/1
f 228/114/2 234/117/2 204/102/2
f 203/102/1 227/114/1 235/118/1
f 236/118/2 228/114/2 204/102/2
f 203/102/1 235/118/1 205/103/1
f 206/103/2 236/118/2 204/102/2
f 209/105/1 235/118/1 227/114/1
f 228/114/2 236/118/2 210/105/2
f 209/105/1 227/114/1 211/106/1
f 212/106/2 228/114/2 210/105/2
f 227/114/1 233/117/1 231/116/1
f 232/116/2 234/117/2 228/114/2
f 227/114/1 231/116/1 229/115/1
f 230/115/2 232/116/2 228/114/2
f 211/106/1 215/108/1 213/107/1
f 214/107/2 216/108/2 212/106/2
f 215/108/1 219/110/1 217/109/1
f 218/109/2 220/110/2 216/108/2
