# The Great Editor v0.0.1
mtllib floor_1.mtl
o floor_1
v 6.459813068178869 2.579705123623444 0
v 6.459813068178869 2.579705123623444 -0.1
v 150.64099917777946 2.5763436017936723 0
v 150.64099917777946 2.5763436017936723 -0.1
v 150.61836643774296 -84.09752498752283 0
v 150.61836643774296 -84.09752498752283 -0.1
v 6.444756674056305 -84.07694961063412 0
v 6.444756674056305 -84.07694961063412 -0.1
v 31.348943345257588 -77.1309679494098 0
v 31.348943345257588 -77.1309679494098 -0.1
v 33.148943345257585 -77.1309679494098 0
v 33.148943345257585 -77.1309679494098 -0.1
v 33.148943345257585 -79.5309679494098 0
v 33.148943345257585 -79.5309679494098 -0.1
v 31.348943345257588 -79.5309679494098 0
v 31.348943345257588 -79.5309679494098 -0.1
vt 6.459813068178869 2.579705123623444 0
vt 150.64099917777946 2.5763436017936723 0
vt 150.61836643774296 -84.09752498752283 0
vt 6.444756674056305 -84.07694961063412 0
vt 31.348943345257588 -77.1309679494098 0
vt 33.148943345257585 -77.1309679494098 0
vt 33.148943345257585 -79.5309679494098 0
vt 31.348943345257588 -79.5309679494098 0
vn 0 0 1
vn 0 0 -1
usemtl floor_1
s off
f 1/1/1 7/4/1 9/5/1
f 10/5/2 8/4/2 2/1/2
f 1/1/1 9/5/1 11/6/1
f 12/6/2 10/5/2 2/1/2
f 1/1/1 11/6/1 3/2/1
f 4/2/2 12/6/2 2/1/2
f 3/2/1 11/6/1 5/3/1
f 6/3/2 12/6/2 4/2/2
f 5/3/1 11/6/1 13/7/1
f 14/7/2 12/6/2 6/3/2
f 5/3/1 13/7/1 7/4/1
f 8/4/2 14/7/2 6/3/2
f 7/4/1 13/7/1 15/8/1
f 16/8/2 14/7/2 8/4/2
f 7/4/1 15/8/1 9/5/1
f 10/5/2 16/8/2 8/4/2
