# The Great Editor v0.0.1
mtllib floor_1.mtl
o floor_1
v 6.410681864375255 2.5817920369788 0
v 6.410681864375255 2.5817920369788 -0.1
v 150.6721641895212 2.612402367733977 0
v 150.6721641895212 2.612402367733977 -0.1
v 150.669941996233 -84.10974078560722 0
v 150.669941996233 -84.10974078560722 -0.1
v 6.41603618017851 -84.12312588956688 0
v 6.41603618017851 -84.12312588956688 -0.1
vt 6.410681864375255 2.5817920369788 0
vt 150.6721641895212 2.612402367733977 0
vt 150.669941996233 -84.10974078560722 0
vt 6.41603618017851 -84.12312588956688 0
vn 0 0 1
vn 0 0 -1
usemtl floor_1
s off
f 1/1/1 7/4/1 5/3/1
f 6/3/2 8/4/2 2/1/2
f 1/1/1 5/3/1 3/2/1
f 4/2/2 6/3/2 2/1/2
