# The Great Editor v0.0.1
mtllib floor_1.mtl
o floor_1
v 6.459813068178869 2.579705123623444 0
v 6.459813068178869 2.579705123623444 -0.1
v 150.64099917777946 2.5763436017936723 0
v 150.64099917777946 2.5763436017936723 -0.1
v 150.61836643774296 -84.09752498752283 0
v 150.61836643774296 -84.09752498752283 -0.1
v 6.444756674056305 -84.07694961063412 0
v 6.444756674056305 -84.07694961063412 -0.1
vt 6.459813068178869 2.579705123623444 0
vt 150.64099917777946 2.5763436017936723 0
vt 150.61836643774296 -84.09752498752283 0
vt 6.444756674056305 -84.07694961063412 0
vn 0 0 1
vn 0 0 -1
usemtl floor_1
s off
f 1/1/1 7/4/1 5/3/1
f 6/3/2 8/4/2 2/1/2
f 1/1/1 5/3/1 3/2/1
f 4/2/2 6/3/2 2/1/2
