# The Great Editor v0.0.1
mtllib floor_1.mtl
o floor_1
v 6.410681864375255 2.5817920369788 0
v 6.410681864375255 2.5817920369788 -0.1
v 150.6721641895212 2.612402367733977 0
v 150.6721641895212 2.612402367733977 -0.1
v 150.669941996233 -84.10974078560722 0
v 150.669941996233 -84.10974078560722 -0.1
v 6.41603618017851 -84.12312588956688 0
v 6.41603618017851 -84.12312588956688 -0.1
v 53.087853797129874 -47.95713981557261 0
v 53.087853797129874 -47.95713981557261 -0.1
v 54.28785379712988 -47.95713981557261 0
v 54.28785379712988 -47.95713981557261 -0.1
v 54.28785379712988 -49.65713981557261 0
v 54.28785379712988 -49.65713981557261 -0.1
v 53.087853797129874 -49.65713981557261 0
v 53.087853797129874 -49.65713981557261 -0.1
vt 6.410681864375255 2.5817920369788 0
vt 150.6721641895212 2.612402367733977 0
vt 150.669941996233 -84.10974078560722 0
vt 6.41603618017851 -84.12312588956688 0
vt 53.087853797129874 -47.95713981557261 0
vt 54.28785379712988 -47.95713981557261 0
vt 54.28785379712988 -49.65713981557261 0
vt 53.087853797129874 -49.65713981557261 0
vn 0 0 1
vn 0 0 -1
usemtl floor_1
s off
f 1/1/1 7/4/1 9/5/1
f 10/5/2 8/4/2 2/1/2
f 1/1/1 9/5/1 11/6/1
f 12/6/2 10/5/2 2/1/2
f 1/1/1 11/6/1 3/2/1
f 4/2/2 12/6/2 2/1/2
f 3/2/1 11/6/1 5/3/1
f 6/3/2 12/6/2 4/2/2
f 5/3/1 11/6/1 13/7/1
f 14/7/2 12/6/2 6/3/2
f 5/3/1 13/7/1 7/4/1
f 8/4/2 14/7/2 6/3/2
f 7/4/1 13/7/1 15/8/1
f 16/8/2 14/7/2 8/4/2
f 7/4/1 15/8/1 9/5/1
f 10/5/2 16/8/2 8/4/2
