# The Great Editor v0.0.1
mtllib floor_1.mtl
o floor_1
v 3.081838123518139 -106.18291407809576 0
v 3.081838123518139 -106.18291407809576 -0.1
v 74.89505943924388 -106.04995846082154 0
v 74.89505943924388 -106.04995846082154 -0.1
v 74.68210974828283 -0.3893889248774667 0
v 74.68210974828283 -0.3893889248774667 -0.1
v 2.8845300535173446 -0.5235432930111423 0
v 2.8845300535173446 -0.5235432930111423 -0.1
v 10.499780690993424 -7.653214676600388 0
v 10.499780690993424 -7.653214676600388 -0.1
v 10.669911966729313 -98.99114109073506 0
v 10.669911966729313 -98.99114109073506 -0.1
v 18.91217334111984 -58.80356447934749 0
v 18.91217334111984 -58.80356447934749 -0.1
v 18.810076178909288 -20.8008332366491 0
v 18.810076178909288 -20.8008332366491 -0.1
v 12.734810113146589 -9.927119104131837 0
v 12.734810113146589 -9.927119104131837 -0.1
v 10.75870872648376 -7.44809551287571 0
v 10.75870872648376 -7.44809551287571 -0.1
v 22.97911999991263 -6.99196725713179 0
v 22.97911999991263 -6.99196725713179 -0.1
v 23.35030890199029 -6.885615945666036 0
v 23.35030890199029 -6.885615945666036 -0.1
v 22.97216218632671 -3.2565443458222925 0
v 22.97216218632671 -3.2565443458222925 -0.1
v 23.352496821187454 -3.2549311546644186 0
v 23.352496821187454 -3.2549311546644186 -0.1
v 39.19771950699448 -3.195366041077622 0
v 39.19771950699448 -3.195366041077622 -0.1
v 38.89528329779792 -3.3316269181356573 0
v 38.89528329779792 -3.3316269181356573 -0.1
v 38.694634430879596 -7.684484372533727 0
v 38.694634430879596 -7.684484372533727 -0.1
v 41.43352347367334 -3.1875340028654455 0
v 41.43352347367334 -3.1875340028654455 -0.1
v 44.17766455790702 -7.97224371510748 0
v 44.17766455790702 -7.97224371510748 -0.1
v 41.72513572346431 -3.190496766322589 0
v 41.72513572346431 -3.190496766322589 -0.1
v 51.38475936572353 -4.547526306063011 0
v 51.38475936572353 -4.547526306063011 -0.1
v 50.747287236507404 -4.5272256960779576 0
v 50.747287236507404 -4.5272256960779576 -0.1
v 52.033202245072964 -4.689561056407358 0
v 52.033202245072964 -4.689561056407358 -0.1
v 50.10274843626861 -4.564244973657064 0
v 50.10274843626861 -4.564244973657064 -0.1
v 49.243599964794605 -4.737733134563838 0
v 49.243599964794605 -4.737733134563838 -0.1
v 46.76460739340762 -6.192710018097121 0
v 46.76460739340762 -6.192710018097121 -0.1
v 55.00880046924652 -6.4387804995290265 0
v 55.00880046924652 -6.4387804995290265 -0.1
v 54.65716545566365 -6.070568874239738 0
v 54.65716545566365 -6.070568874239738 -0.1
v 53.703220420574816 -5.338215420914291 0
v 53.703220420574816 -5.338215420914291 -0.1
v 53.147593005032334 -5.038434489504291 0
v 53.147593005032334 -5.038434489504291 -0.1
v 52.69960920717805 -4.856637067231042 0
v 52.69960920717805 -4.856637067231042 -0.1
v 54.21238147964748 -5.681058907716716 0
v 54.21238147964748 -5.681058907716716 -0.1
v 67.48939385071155 -15.15066484203578 0
v 67.48939385071155 -15.15066484203578 -0.1
v 65.44057649266877 -15.154481087100216 0
v 65.44057649266877 -15.154481087100216 -0.1
v 67.18441494925749 -15.396390015551571 0
v 67.18441494925749 -15.396390015551571 -0.1
v 67.19382715200713 -20.44949432234851 0
v 67.19382715200713 -20.44949432234851 -0.1
v 67.54390871461581 -54.479569111266706 0
v 67.54390871461581 -54.479569111266706 -0.1
v 53.5176667218548 -80.01262752526688 0
v 53.5176667218548 -80.01262752526688 -0.1
v 50.71105933174919 -85.12171308601194 0
v 50.71105933174919 -85.12171308601194 -0.1
v 53.55287816116239 -98.91649948238356 0
v 53.55287816116239 -98.91649948238356 -0.1
v 34.75584050134783 -96.72432088458199 0
v 34.75584050134783 -96.72432088458199 -0.1
v 34.74152539875812 -98.64962408042071 0
v 34.74152539875812 -98.64962408042071 -0.1
v 34.74208776013968 -98.95153754263048 0
v 34.74208776013968 -98.95153754263048 -0.1
v 29.46600010143796 -98.95613041577508 0
v 29.46600010143796 -98.95613041577508 -0.1
v 29.471059511078835 -98.71458292151345 0
v 29.471059511078835 -98.71458292151345 -0.1
v 29.467354883629014 -96.72568941595293 0
v 29.467354883629014 -96.72568941595293 -0.1
v 35.16452749185382 -85.15067095049419 0
v 35.16452749185382 -85.15067095049419 -0.1
v 18.9094734260684 -61.873138706830574 0
v 18.9094734260684 -61.873138706830574 -0.1
v 19.44198808753419 -58.802577615924484 0
v 19.44198808753419 -58.802577615924484 -0.1
v 22.093943996088925 -52.718906916101474 0
v 22.093943996088925 -52.718906916101474 -0.1
v 22.096810769823662 -51.51891034043621 0
v 22.096810769823662 -51.51891034043621 -0.1
v 34.95311825452919 -31.353993135497763 0
v 34.95311825452919 -31.353993135497763 -0.1
v 21.950868015671706 -20.794983017107366 0
v 21.950868015671706 -20.794983017107366 -0.1
v 18.80865358848657 -20.037090892475064 0
v 18.80865358848657 -20.037090892475064 -0.1
v 22.984551621173587 -9.90802734600699 0
v 22.984551621173587 -9.90802734600699 -0.1
v 31.67111531124968 -13.842013849854231 0
v 31.67111531124968 -13.842013849854231 -0.1
v 33.05225029788788 -13.034260082494457 0
v 33.05225029788788 -13.034260082494457 -0.1
v 35.539032374183435 -7.5201949193344255 0
v 35.539032374183435 -7.5201949193344255 -0.1
v 36.98328237210205 -4.3177878100310885 0
v 36.98328237210205 -4.3177878100310885 -0.1
v 37.22690050389404 -4.211493504548914 0
v 37.22690050389404 -4.211493504548914 -0.1
v 33.86000406524765 -14.415395069132655 0
v 33.86000406524765 -14.415395069132655 -0.1
v 46.365935154426616 -21.338794374632087 0
v 46.365935154426616 -21.338794374632087 -0.1
v 45.52534747256222 -8.014228148782726 0
v 45.52534747256222 -8.014228148782726 -0.1
v 46.37148402702609 -6.623170004347499 0
v 46.37148402702609 -6.623170004347499 -0.1
v 46.01425651348262 -7.103712571743999 0
v 46.01425651348262 -7.103712571743999 -0.1
v 56.00726886917735 -8.001861200991579 0
v 56.00726886917735 -8.001861200991579 -0.1
v 55.67657203516424 -7.347141576734158 0
v 55.67657203516424 -7.347141576734158 -0.1
v 55.34616481913884 -6.839234553147725 0
v 55.34616481913884 -6.839234553147725 -0.1
v 59.42037091348108 -10.083297446297175 0
v 59.42037091348108 -10.083297446297175 -0.1
v 56.47668638334676 -10.088780522431454 0
v 56.47668638334676 -10.088780522431454 -0.1
v 59.435070085670155 -10.289781077794002 0
v 59.435070085670155 -10.289781077794002 -0.1
v 65.44103313480522 -15.39963733880306 0
v 65.44103313480522 -15.39963733880306 -0.1
v 62.71194605972081 -20.431701488551564 0
v 62.71194605972081 -20.431701488551564 -0.1
v 50.420611979594376 -31.341823576397736 0
v 50.420611979594376 -31.341823576397736 -0.1
v 54.11842683633739 -54.50329983106171 0
v 54.11842683633739 -54.50329983106171 -0.1
v 53.471491616221215 -55.22272112926412 0
v 53.471491616221215 -55.22272112926412 -0.1
v 50.692549074613055 -75.18416047027794 0
v 50.692549074613055 -75.18416047027794 -0.1
v 53.50224275292153 -71.7320022648784 0
v 53.50224275292153 -71.7320022648784 -0.1
v 34.492269455058896 -96.52715451933302 0
v 34.492269455058896 -96.52715451933302 -0.1
v 29.73636096018194 -96.53601314806791 0
v 29.73636096018194 -96.53601314806791 -0.1
v 35.145978684659894 -75.19242206756424 0
v 35.145978684659894 -75.19242206756424 -0.1
v 19.44770562385597 -61.87213616457844 0
v 19.44770562385597 -61.87213616457844 -0.1
v 35.63063247999719 -58.934601585218616 0
v 35.63063247999719 -58.934601585218616 -0.1
v 23.69393943030927 -52.72272928108113 0
v 23.69393943030927 -52.72272928108113 -0.1
v 23.69680620404401 -51.52273270541586 0
v 23.69680620404401 -51.52273270541586 -0.1
v 34.93450303049098 -21.36008721767207 0
v 34.93450303049098 -21.36008721767207 -0.1
v 21.949477384781666 -20.04839870241194 0
v 21.949477384781666 -20.04839870241194 -0.1
v 32.47886907860945 -15.22314883649243 0
v 32.47886907860945 -15.22314883649243 -0.1
v 47.135802221702875 -22.639226340352394 0
v 47.135802221702875 -22.639226340352394 -0.1
v 49.32069003324411 -21.352387534357415 0
v 49.32069003324411 -21.352387534357415 -0.1
v 53.11991320169568 -17.07562868086456 0
v 53.11991320169568 -17.07562868086456 -0.1
v 56.439896716873854 -9.558838587665575 0
v 56.439896716873854 -9.558838587665575 -0.1
v 56.23398325208161 -8.595913377781663 0
v 56.23398325208161 -8.595913377781663 -0.1
v 56.371021925948085 -9.107751143516344 0
v 56.371021925948085 -9.107751143516344 -0.1
v 54.47743035342989 -16.447039875632434 0
v 54.47743035342989 -16.447039875632434 -0.1
v 55.268953516711406 -15.886101973918196 0
v 55.268953516711406 -15.886101973918196 -0.1
v 55.86742692492889 -15.378807440785563 0
v 55.86742692492889 -15.378807440785563 -0.1
v 56.56536452790225 -14.631566772801072 0
v 56.56536452790225 -14.631566772801072 -0.1
v 56.904055316618795 -14.104786824387231 0
v 56.904055316618795 -14.104786824387231 -0.1
v 57.216116674787045 -13.584696754867084 0
v 57.216116674787045 -13.584696754867084 -0.1
v 57.554447693058 -12.864767802294322 0
v 57.554447693058 -12.864767802294322 -0.1
v 57.84570490294875 -11.905149508590931 0
v 57.84570490294875 -11.905149508590931 -0.1
v 53.4011347541732 -20.529632427875374 0
v 53.4011347541732 -20.529632427875374 -0.1
v 50.4020013298019 -21.350373421736588 0
v 50.4020013298019 -21.350373421736588 -0.1
v 53.43276855262313 -16.98180739643258 0
v 53.43276855262313 -16.98180739643258 -0.1
v 53.99183318033514 -16.767630918485764 0
v 53.99183318033514 -16.767630918485764 -0.1
v 55.01628629734007 -16.113020605981898 0
v 55.01628629734007 -16.113020605981898 -0.1
v 49.8037787701198 -58.90820186766211 0
v 49.8037787701198 -58.90820186766211 -0.1
v 42.806123674933886 -66.07370344733111 0
v 42.806123674933886 -66.07370344733111 -0.1
v 47.104217714528026 -5.873360282311615 0
v 47.104217714528026 -5.873360282311615 -0.1
v 47.49038777293737 -5.561081103630975 0
v 47.49038777293737 -5.561081103630975 -0.1
v 47.96253237924872 -5.252228502983151 0
v 47.96253237924872 -5.252228502983151 -0.1
vt 3.081838123518139 -106.18291407809576 0
vt 74.89505943924388 -106.04995846082154 0
vt 74.68210974828283 -0.3893889248774667 0
vt 2.8845300535173446 -0.5235432930111423 0
vt 10.499780690993424 -7.653214676600388 0
vt 10.669911966729313 -98.99114109073506 0
vt 18.91217334111984 -58.80356447934749 0
vt 18.810076178909288 -20.8008332366491 0
vt 12.734810113146589 -9.927119104131837 0
vt 10.75870872648376 -7.44809551287571 0
vt 22.97911999991263 -6.99196725713179 0
vt 23.35030890199029 -6.885615945666036 0
vt 22.97216218632671 -3.2565443458222925 0
vt 23.352496821187454 -3.2549311546644186 0
vt 39.19771950699448 -3.195366041077622 0
vt 38.89528329779792 -3.3316269181356573 0
vt 38.694634430879596 -7.684484372533727 0
vt 41.43352347367334 -3.1875340028654455 0
vt 44.17766455790702 -7.97224371510748 0
vt 41.72513572346431 -3.190496766322589 0
vt 51.38475936572353 -4.547526306063011 0
vt 50.747287236507404 -4.5272256960779576 0
vt 52.033202245072964 -4.689561056407358 0
vt 50.10274843626861 -4.564244973657064 0
vt 49.243599964794605 -4.737733134563838 0
vt 46.76460739340762 -6.192710018097121 0
vt 55.00880046924652 -6.4387804995290265 0
vt 54.65716545566365 -6.070568874239738 0
vt 53.703220420574816 -5.338215420914291 0
vt 53.147593005032334 -5.038434489504291 0
vt 52.69960920717805 -4.856637067231042 0
vt 54.21238147964748 -5.681058907716716 0
vt 67.48939385071155 -15.15066484203578 0
vt 65.44057649266877 -15.154481087100216 0
vt 67.18441494925749 -15.396390015551571 0
vt 67.19382715200713 -20.44949432234851 0
vt 67.54390871461581 -54.479569111266706 0
vt 53.5176667218548 -80.01262752526688 0
vt 50.71105933174919 -85.12171308601194 0
vt 53.55287816116239 -98.91649948238356 0
vt 34.75584050134783 -96.72432088458199 0
vt 34.74152539875812 -98.64962408042071 0
vt 34.74208776013968 -98.95153754263048 0
vt 29.46600010143796 -98.95613041577508 0
vt 29.471059511078835 -98.71458292151345 0
vt 29.467354883629014 -96.72568941595293 0
vt 35.16452749185382 -85.15067095049419 0
vt 18.9094734260684 -61.873138706830574 0
vt 19.44198808753419 -58.802577615924484 0
vt 22.093943996088925 -52.718906916101474 0
vt 22.096810769823662 -51.51891034043621 0
vt 34.95311825452919 -31.353993135497763 0
vt 21.950868015671706 -20.794983017107366 0
vt 18.80865358848657 -20.037090892475064 0
vt 22.984551621173587 -9.90802734600699 0
vt 31.67111531124968 -13.842013849854231 0
vt 33.05225029788788 -13.034260082494457 0
vt 35.539032374183435 -7.5201949193344255 0
vt 36.98328237210205 -4.3177878100310885 0
vt 37.22690050389404 -4.211493504548914 0
vt 33.86000406524765 -14.415395069132655 0
vt 46.365935154426616 -21.338794374632087 0
vt 45.52534747256222 -8.014228148782726 0
vt 46.37148402702609 -6.623170004347499 0
vt 46.01425651348262 -7.103712571743999 0
vt 56.00726886917735 -8.001861200991579 0
vt 55.67657203516424 -7.347141576734158 0
vt 55.34616481913884 -6.839234553147725 0
vt 59.42037091348108 -10.083297446297175 0
vt 56.47668638334676 -10.088780522431454 0
vt 59.435070085670155 -10.289781077794002 0
vt 65.44103313480522 -15.39963733880306 0
vt 62.71194605972081 -20.431701488551564 0
vt 50.420611979594376 -31.341823576397736 0
vt 54.11842683633739 -54.50329983106171 0
vt 53.471491616221215 -55.22272112926412 0
vt 50.692549074613055 -75.18416047027794 0
vt 53.50224275292153 -71.7320022648784 0
vt 34.492269455058896 -96.52715451933302 0
vt 29.73636096018194 -96.53601314806791 0
vt 35.145978684659894 -75.19242206756424 0
vt 19.44770562385597 -61.87213616457844 0
vt 35.63063247999719 -58.934601585218616 0
vt 23.69393943030927 -52.72272928108113 0
vt 23.69680620404401 -51.52273270541586 0
vt 34.93450303049098 -21.36008721767207 0
vt 21.949477384781666 -20.04839870241194 0
vt 32.47886907860945 -15.22314883649243 0
vt 47.135802221702875 -22.639226340352394 0
vt 49.32069003324411 -21.352387534357415 0
vt 53.11991320169568 -17.07562868086456 0
vt 56.439896716873854 -9.558838587665575 0
vt 56.23398325208161 -8.595913377781663 0
vt 56.371021925948085 -9.107751143516344 0
vt 54.47743035342989 -16.447039875632434 0
vt 55.268953516711406 -15.886101973918196 0
vt 55.86742692492889 -15.378807440785563 0
vt 56.56536452790225 -14.631566772801072 0
vt 56.904055316618795 -14.104786824387231 0
vt 57.216116674787045 -13.584696754867084 0
vt 57.554447693058 -12.864767802294322 0
vt 57.84570490294875 -11.905149508590931 0
vt 53.4011347541732 -20.529632427875374 0
vt 50.4020013298019 -21.350373421736588 0
vt 53.43276855262313 -16.98180739643258 0
vt 53.99183318033514 -16.767630918485764 0
vt 55.01628629734007 -16.113020605981898 0
vt 49.8037787701198 -58.90820186766211 0
vt 42.806123674933886 -66.07370344733111 0
vt 47.104217714528026 -5.873360282311615 0
vt 47.49038777293737 -5.561081103630975 0
vt 47.96253237924872 -5.252228502983151 0
vn 0 0 1
vn 0 0 -1
usemtl floor_1
s off
f 9/5/1 11/6/1 13/7/1
f 14/7/2 12/6/2 10/5/2
f 9/5/1 13/7/1 15/8/1
f 16/8/2 14/7/2 10/5/2
f 9/5/1 15/8/1 17/9/1
f 18/9/2 16/8/2 10/5/2
f 9/5/1 17/9/1 19/10/1
f 20/10/2 18/9/2 10/5/2
f 21/11/1 23/12/1 25/13/1
f 26/13/2 24/12/2 22/11/2
f 25/13/1 23/12/1 27/14/1
f 28/14/2 24/12/2 26/13/2
f 29/15/1 31/16/1 33/17/1
f 34/17/2 32/16/2 30/15/2
f 29/15/1 33/17/1 35/18/1
f 36/18/2 34/17/2 30/15/2
f 35/18/1 33/17/1 37/19/1
f 38/19/2 34/17/2 36/18/2
f 35/18/1 37/19/1 39/20/1
f 40/20/2 38/19/2 36/18/2
f 41/21/1 43/22/1 45/23/1
f 46/23/2 44/22/2 42/21/2
f 45/23/1 43/22/1 47/24/1
f 48/24/2 44/22/2 46/23/2
f 45/23/1 47/24/1 49/25/1
f 50/25/2 48/24/2 46/23/2
f 45/23/1 49/25/1 51/26/1
f 52/26/2 50/25/2 46/23/2
f 45/23/1 51/26/1 53/27/1
f 54/27/2 52/26/2 46/23/2
f 45/23/1 53/27/1 55/28/1
f 56/28/2 54/27/2 46/23/2
f 45/23/1 55/28/1 57/29/1
f 58/29/2 56/28/2 46/23/2
f 45/23/1 57/29/1 59/30/1
f 60/30/2 58/29/2 46/23/2
f 45/23/1 59/30/1 61/31/1
f 62/31/2 60/30/2 46/23/2
f 57/29/1 55/28/1 63/32/1
f 64/32/2 56/28/2 58/29/2
f 65/33/1 67/34/1 69/35/1
f 70/35/2 68/34/2 66/33/2
f 65/33/1 69/35/1 71/36/1
f 72/36/2 70/35/2 66/33/2
f 65/33/1 71/36/1 73/37/1
f 74/37/2 72/36/2 66/33/2
f 75/38/1 77/39/1 79/40/1
f 80/40/2 78/39/2 76/38/2
f 79/40/1 77/39/1 81/41/1
f 82/41/2 78/39/2 80/40/2
f 79/40/1 81/41/1 83/42/1
f 84/42/2 82/41/2 80/40/2
f 79/40/1 83/42/1 85/43/1
f 86/43/2 84/42/2 80/40/2
f 11/6/1 87/44/1 89/45/1
f 90/45/2 88/44/2 12/6/2
f 11/6/1 89/45/1 91/46/1
f 92/46/2 90/45/2 12/6/2
f 11/6/1 91/46/1 93/47/1
f 94/47/2 92/46/2 12/6/2
f 11/6/1 93/47/1 95/48/1
f 96/48/2 94/47/2 12/6/2
f 11/6/1 95/48/1 13/7/1
f 14/7/2 96/48/2 12/6/2
f 13/7/1 97/49/1 99/50/1
f 100/50/2 98/49/2 14/7/2
f 13/7/1 99/50/1 101/51/1
f 102/51/2 100/50/2 14/7/2
f 13/7/1 101/51/1 15/8/1
f 16/8/2 102/51/2 14/7/2
f 15/8/1 101/51/1 103/52/1
f 104/52/2 102/51/2 16/8/2
f 15/8/1 103/52/1 105/53/1
f 106/53/2 104/52/2 16/8/2
f 15/8/1 107/54/1 17/9/1
f 18/9/2 108/54/2 16/8/2
f 17/9/1 107/54/1 109/55/1
f 110/55/2 108/54/2 18/9/2
f 21/11/1 109/55/1 23/12/1
f 24/12/2 110/55/2 22/11/2
f 23/12/1 109/55/1 111/56/1
f 112/56/2 110/55/2 24/12/2
f 23/12/1 111/56/1 113/57/1
f 114/57/2 112/56/2 24/12/2
f 23/12/1 113/57/1 115/58/1
f 116/58/2 114/57/2 24/12/2
f 115/58/1 113/57/1 33/17/1
f 34/17/2 114/57/2 116/58/2
f 117/59/1 33/17/1 119/60/1
f 120/60/2 34/17/2 118/59/2
f 31/16/1 119/60/1 33/17/1
f 34/17/2 120/60/2 32/16/2
f 33/17/1 113/57/1 121/61/1
f 122/61/2 114/57/2 34/17/2
f 33/17/1 121/61/1 37/19/1
f 38/19/2 122/61/2 34/17/2
f 37/19/1 121/61/1 123/62/1
f 124/62/2 122/61/2 38/19/2
f 37/19/1 123/62/1 125/63/1
f 126/63/2 124/62/2 38/19/2
f 127/64/1 129/65/1 125/63/1
f 126/63/2 130/65/2 128/64/2
f 127/64/1 125/63/1 131/66/1
f 132/66/2 126/63/2 128/64/2
f 127/64/1 131/66/1 53/27/1
f 54/27/2 132/66/2 128/64/2
f 127/64/1 53/27/1 51/26/1
f 52/26/2 54/27/2 128/64/2
f 53/27/1 131/66/1 133/67/1
f 134/67/2 132/66/2 54/27/2
f 53/27/1 133/67/1 135/68/1
f 136/68/2 134/67/2 54/27/2
f 137/69/1 139/70/1 141/71/1
f 142/71/2 140/70/2 138/69/2
f 67/34/1 143/72/1 69/35/1
f 70/35/2 144/72/2 68/34/2
f 71/36/1 145/73/1 147/74/1
f 148/74/2 146/73/2 72/36/2
f 71/36/1 147/74/1 73/37/1
f 74/37/2 148/74/2 72/36/2
f 73/37/1 147/74/1 149/75/1
f 150/75/2 148/74/2 74/37/2
f 151/76/1 153/77/1 155/78/1
f 156/78/2 154/77/2 152/76/2
f 155/78/1 153/77/1 75/38/1
f 76/38/2 154/77/2 156/78/2
f 77/39/1 75/38/1 153/77/1
f 154/77/2 76/38/2 78/39/2
f 77/39/1 93/47/1 81/41/1
f 82/41/2 94/47/2 78/39/2
f 81/41/1 93/47/1 157/79/1
f 158/79/2 94/47/2 82/41/2
f 91/46/1 159/80/1 93/47/1
f 94/47/2 160/80/2 92/46/2
f 93/47/1 159/80/1 157/79/1
f 158/79/2 160/80/2 94/47/2
f 93/47/1 161/81/1 95/48/1
f 96/48/2 162/81/2 94/47/2
f 95/48/1 161/81/1 163/82/1
f 164/82/2 162/81/2 96/48/2
f 163/82/1 161/81/1 165/83/1
f 166/83/2 162/81/2 164/82/2
f 163/82/1 165/83/1 97/49/1
f 98/49/2 166/83/2 164/82/2
f 97/49/1 165/83/1 167/84/1
f 168/84/2 166/83/2 98/49/2
f 97/49/1 167/84/1 99/50/1
f 100/50/2 168/84/2 98/49/2
f 101/51/1 169/85/1 103/52/1
f 104/52/2 170/85/2 102/51/2
f 103/52/1 169/85/1 165/83/1
f 166/83/2 170/85/2 104/52/2
f 103/52/1 165/83/1 151/76/1
f 152/76/2 166/83/2 104/52/2
f 103/52/1 151/76/1 149/75/1
f 150/75/2 152/76/2 104/52/2
f 103/52/1 149/75/1 147/74/1
f 148/74/2 150/75/2 104/52/2
f 103/52/1 171/86/1 105/53/1
f 106/53/2 172/86/2 104/52/2
f 105/53/1 171/86/1 173/87/1
f 174/87/2 172/86/2 106/53/2
f 173/87/1 171/86/1 175/88/1
f 176/88/2 172/86/2 174/87/2
f 173/87/1 175/88/1 111/56/1
f 112/56/2 176/88/2 174/87/2
f 173/87/1 111/56/1 109/55/1
f 110/55/2 112/56/2 174/87/2
f 173/87/1 109/55/1 107/54/1
f 108/54/2 110/55/2 174/87/2
f 121/61/1 175/88/1 171/86/1
f 172/86/2 176/88/2 122/61/2
f 121/61/1 171/86/1 123/62/1
f 124/62/2 172/86/2 122/61/2
f 123/62/1 177/89/1 179/90/1
f 180/90/2 178/89/2 124/62/2
f 123/62/1 179/90/1 181/91/1
f 182/91/2 180/90/2 124/62/2
f 123/62/1 181/91/1 125/63/1
f 126/63/2 182/91/2 124/62/2
f 125/63/1 181/91/1 139/70/1
f 140/70/2 182/91/2 126/63/2
f 125/63/1 139/70/1 131/66/1
f 132/66/2 140/70/2 126/63/2
f 131/66/1 139/70/1 183/92/1
f 184/92/2 140/70/2 132/66/2
f 131/66/1 183/92/1 185/93/1
f 186/93/2 184/92/2 132/66/2
f 185/93/1 183/92/1 187/94/1
f 188/94/2 184/92/2 186/93/2
f 139/70/1 181/91/1 189/95/1
f 190/95/2 182/91/2 140/70/2
f 139/70/1 189/95/1 191/96/1
f 192/96/2 190/95/2 140/70/2
f 139/70/1 191/96/1 193/97/1
f 194/97/2 192/96/2 140/70/2
f 139/70/1 193/97/1 195/98/1
f 196/98/2 194/97/2 140/70/2
f 139/70/1 195/98/1 197/99/1
f 198/99/2 196/98/2 140/70/2
f 139/70/1 197/99/1 199/100/1
f 200/100/2 198/99/2 140/70/2
f 139/70/1 199/100/1 201/101/1
f 202/101/2 200/100/2 140/70/2
f 139/70/1 201/101/1 203/102/1
f 204/102/2 202/101/2 140/70/2
f 139/70/1 203/102/1 141/71/1
f 142/71/2 204/102/2 140/70/2
f 145/73/1 205/103/1 147/74/1
f 148/74/2 206/103/2 146/73/2
f 147/74/1 205/103/1 207/104/1
f 208/104/2 206/103/2 148/74/2
f 179/90/1 207/104/1 181/91/1
f 182/91/2 208/104/2 180/90/2
f 181/91/1 207/104/1 205/103/1
f 206/103/2 208/104/2 182/91/2
f 181/91/1 209/105/1 189/95/1
f 190/95/2 210/105/2 182/91/2
f 189/95/1 209/105/1 211/106/1
f 212/106/2 210/105/2 190/95/2
f 189/95/1 213/107/1 191/96/1
f 192/96/2 214/107/2 190/95/2
f 151/76/1 165/83/1 215/108/1
f 216/108/2 166/83/2 152/76/2
f 151/76/1 215/108/1 153/77/1
f 154/77/2 216/108/2 152/76/2
f 153/77/1 215/108/1 217/109/1
f 218/109/2 216/108/2 154/77/2
f 153/77/1 217/109/1 161/81/1
f 162/81/2 218/109/2 154/77/2
f 161/81/1 217/109/1 165/83/1
f 166/83/2 218/109/2 162/81/2
f 165/83/1 169/85/1 167/84/1
f 168/84/2 170/85/2 166/83/2
f 51/26/1 49/25/1 219/110/1
f 220/110/2 50/25/2 52/26/2
f 219/110/1 49/25/1 221/111/1
f 222/111/2 50/25/2 220/110/2
f 221/111/1 49/25/1 223/112/1
f 224/112/2 50/25/2 222/111/2
