# The Great Editor v0.0.1
mtllib floor_1.mtl
o floor_1
v 3.0762519186800663 -106.22082003632563 0
v 3.0762519186800663 -106.22082003632563 -0.1
v 74.90838473094807 -106.0891428378826 0
v 74.90838473094807 -106.0891428378826 -0.1
v 74.69731144641906 -0.40074803217704613 0
v 74.69731144641906 -0.40074803217704613 -0.1
v 2.8808243517657712 -0.5336245831986492 0
v 2.8808243517657712 -0.5336245831986492 -0.1
v 10.497949754934213 -7.665312552223197 0
v 10.497949754934213 -7.665312552223197 -0.1
v 10.666455303612427 -99.02729217268104 0
v 10.666455303612427 -99.02729217268104 -0.1
v 18.9116219496053 -58.82928455892275 0
v 18.9116219496053 -58.82928455892275 -0.1
v 18.81019295489304 -20.816544989155364 0
v 18.81019295489304 -20.816544989155364 -0.1
v 12.733526091813665 -9.939856596721603 0
v 12.733526091813665 -9.939856596721603 -0.1
v 10.756949720022147 -7.46014411444605 0
v 10.756949720022147 -7.46014411444605 -0.1
v 22.97369575296893 -3.2677126522428295 0
v 22.97369575296893 -3.2677126522428295 -0.1
v 22.98058707962727 -7.004119261141243 0
v 22.98058707962727 -7.004119261141243 -0.1
v 23.351875664181218 -6.897746735277866 0
v 23.351875664181218 -6.897746735277866 -0.1
v 23.354130562852514 -3.2661059924439972 0
v 23.354130562852514 -3.2661059924439972 -0.1
v 39.20352652723289 -3.2068149958804253 0
v 39.20352652723289 -3.2068149958804253 -0.1
v 38.901008191729595 -3.3431062202445205 0
v 38.901008191729595 -3.3431062202445205 -0.1
v 38.7002268806206 -7.697106151260484 0
v 38.7002268806206 -7.697106151260484 -0.1
v 41.4399193443802 -3.199021787138041 0
v 41.4399193443802 -3.199021787138041 -0.1
v 44.18469547565441 -7.985041545276416 0
v 44.18469547565441 -7.985041545276416 -0.1
v 41.7316083241029 -3.201990664156863 0
v 41.7316083241029 -3.201990664156863 -0.1
v 51.39375061246966 -4.559554191534386 0
v 51.39375061246966 -4.559554191534386 -0.1
v 50.75611100241591 -4.539236577176243 0
v 50.75611100241591 -4.539236577176243 -0.1
v 52.042361634898135 -4.701638200591544 0
v 52.042361634898135 -4.701638200591544 -0.1
v 50.11140181227012 -4.576253813976614 0
v 50.11140181227012 -4.576253813976614 -0.1
v 49.25202394629273 -4.749771942483269 0
v 49.25202394629273 -4.749771942483269 -0.1
v 46.77235202315583 -6.2050865949599405 0
v 46.77235202315583 -6.2050865949599405 -0.1
v 55.01871136842255 -6.451372651047046 0
v 55.01871136842255 -6.451372651047046 -0.1
v 54.66699050059188 -6.08305764111117 0
v 54.66699050059188 -6.08305764111117 -0.1
v 53.71280767759647 -5.350493905388437 0
v 53.71280767759647 -5.350493905388437 -0.1
v 53.15703944321578 -5.05062387682979 0
v 53.15703944321578 -5.05062387682979 -0.1
v 52.70894101219437 -4.868770392270297 0
v 52.70894101219437 -4.868770392270297 -0.1
v 54.22209653290699 -5.693436978250337 0
v 54.22209653290699 -5.693436978250337 -0.1
v 67.5024316660646 -15.165779174483376 0
v 67.5024316660646 -15.165779174483376 -0.1
v 65.45307476625023 -15.169558952573508 0
v 65.45307476625023 -15.169558952573508 -0.1
v 67.19736796674395 -15.41156347173109 0
v 67.19736796674395 -15.41156347173109 -0.1
v 67.20669022910717 -20.465998478328608 0
v 67.20669022910717 -20.465998478328608 -0.1
v 67.55624157859583 -54.505040093772 0
v 67.55624157859583 -54.505040093772 -0.1
v 53.52583936396541 -80.04456505809036 0
v 53.52583936396541 -80.04456505809036 -0.1
v 50.71839952640529 -85.15494455543802 0
v 50.71839952640529 -85.15494455543802 -0.1
v 53.56071433257192 -98.95341521813259 0
v 53.56071433257192 -98.95341521813259 -0.1
v 34.758767338089015 -96.76031561181343 0
v 34.758767338089015 -96.76031561181343 -0.1
v 34.74441325338975 -98.68612549542462 0
v 34.74441325338975 -98.68612549542462 -0.1
v 34.744970241002676 -98.98811846444042 0
v 34.744970241002676 -98.98811846444042 -0.1
v 29.467493257128254 -98.992616049974 0
v 29.467493257128254 -98.992616049974 -0.1
v 29.472558416737666 -98.75100504662612 0
v 29.472558416737666 -98.75100504662612 -0.1
v 29.468889189675327 -96.7615877798229 0
v 29.468889189675327 -96.7615877798229 -0.1
v 35.16777361570455 -85.18362570663743 0
v 35.16777361570455 -85.18362570663743 -0.1
v 18.908865182693017 -61.89966698343319 0
v 18.908865182693017 -61.89966698343319 -0.1
v 19.441576219040474 -58.82830712569159 0
v 19.441576219040474 -58.82830712569159 -0.1
v 22.093943996088925 -52.718906916101474 0
v 22.093943996088925 -52.718906916101474 -0.1
v 22.096810769823662 -51.51891034043621 0
v 22.096810769823662 -51.51891034043621 -0.1
v 34.95729262626658 -31.37277887761238 0
v 34.95729262626658 -31.37277887761238 -0.1
v 21.951811897295293 -20.810750672681195 0
v 21.951811897295293 -20.810750672681195 -0.1
v 18.808783958347945 -20.052601518758042 0
v 18.808783958347945 -20.052601518758042 -0.1
v 22.985966797829178 -9.920947274116784 0
v 22.985966797829178 -9.920947274116784 -0.1
v 31.67111531124968 -13.842013849854231 0
v 31.67111531124968 -13.842013849854231 -0.1
v 33.05225029788788 -13.034260082494457 0
v 33.05225029788788 -13.034260082494457 -0.1
v 35.54009740129542 -7.53252304917997 0
v 35.54009740129542 -7.53252304917997 -0.1
v 36.98848578267188 -4.32949180761901 0
v 36.98848578267188 -4.32949180761901 -0.1
v 37.23217000537029 -4.223173969544993 0
v 37.23217000537029 -4.223173969544993 -0.1
v 33.86000406524765 -14.415395069132655 0
v 33.86000406524765 -14.415395069132655 -0.1
v 46.3732977960333 -21.355151759751845 0
v 46.3732977960333 -21.355151759751845 -0.1
v 45.53273247942674 -8.02706168226338 0
v 45.53273247942674 -8.02706168226338 -0.1
v 46.3791172709744 -6.635652735156898 0
v 46.3791172709744 -6.635652735156898 -0.1
v 46.021786907345934 -7.116315300209358 0
v 46.021786907345934 -7.116315300209358 -0.1
v 56.01741408608278 -8.01488318714699 0
v 56.01741408608278 -8.01488318714699 -0.1
v 55.68664215111758 -7.359985121067449 0
v 55.68664215111758 -7.359985121067449 -0.1
v 55.35615722527143 -6.851938318029538 0
v 55.35615722527143 -6.851938318029538 -0.1
v 59.43137676233857 -10.096929917170183 0
v 59.43137676233857 -10.096929917170183 -0.1
v 56.486917033399834 -10.10236059855698 0
v 56.486917033399834 -10.10236059855698 -0.1
v 59.44607602847099 -10.30346818649832 0
v 59.44607602847099 -10.30346818649832 -0.1
v 65.45352704484168 -15.414779764466573 0
v 65.45352704484168 -15.414779764466573 -0.1
v 62.72362934277894 -20.44811898819688 0
v 62.72362934277894 -20.44811898819688 -0.1
v 50.428859303643506 -31.360889006739608 0
v 50.428859303643506 -31.360889006739608 -0.1
v 54.12722421658024 -54.52853151685347 0
v 54.12722421658024 -54.52853151685347 -0.1
v 53.48010549477289 -55.24813041301642 0
v 53.48010549477289 -55.24813041301642 -0.1
v 50.700066148127796 -75.21477495448443 0
v 50.700066148127796 -75.21477495448443 -0.1
v 53.51056278218082 -71.76175915275302 0
v 53.51056278218082 -71.76175915275302 -0.1
v 34.49513049725353 -96.56309251031307 0
v 34.49513049725353 -96.56309251031307 -0.1
v 29.737969567021693 -96.57186648846053 0
v 29.737969567021693 -96.57186648846053 -0.1
v 35.149402055742875 -75.22275438827018 0
v 35.149402055742875 -75.22275438827018 -0.1
v 19.44723912017856 -61.898674021195426 0
v 19.44723912017856 -61.898674021195426 -0.1
v 35.63448081202361 -58.96066194013979 0
v 35.63448081202361 -58.96066194013979 -0.1
v 23.69393943030927 -52.72272928108113 0
v 23.69393943030927 -52.72272928108113 -0.1
v 23.69680620404401 -51.52273270541586 0
v 23.69680620404401 -51.52273270541586 -0.1
v 34.93885528412147 -21.37624113431776 0
v 34.93885528412147 -21.37624113431776 -0.1
v 21.950434554886492 -20.06396975020996 0
v 21.950434554886492 -20.06396975020996 -0.1
v 32.47886907860945 -15.22314883649243 0
v 32.47886907860945 -15.22314883649243 -0.1
v 47.14334379197064 -22.655940221341307 0
v 47.14334379197064 -22.655940221341307 -0.1
v 49.32883043968259 -21.36880253963957 0
v 49.32883043968259 -21.36880253963957 -0.1
v 53.12913219738867 -17.090987063063437 0
v 53.12913219738867 -17.090987063063437 -0.1
v 56.450127372246044 -9.572278452465422 0
v 56.450127372246044 -9.572278452465422 -0.1
v 56.244177300004445 -8.609095929690435 0
v 56.244177300004445 -8.609095929690435 -0.1
v 56.38124269613005 -9.121070973264096 0
v 56.38124269613005 -9.121070973264096 -0.1
v 54.48701829212574 -16.462257573061894 0
v 54.48701829212574 -16.462257573061894 -0.1
v 55.27876012981925 -15.901186447925776 0
v 55.27876012981925 -15.901186447925776 -0.1
v 55.87740039960798 -15.393769285369341 0
v 55.87740039960798 -15.393769285369341 -0.1
v 56.57553544245916 -14.64634462714251 0
v 56.57553544245916 -14.64634462714251 -0.1
v 56.91432504603306 -14.119432167328595 0
v 56.91432504603306 -14.119432167328595 -0.1
v 57.226478084936446 -13.59921086087473 0
v 57.226478084936446 -13.59921086087473 -0.1
v 57.564911355930874 -12.87909853245784 0
v 57.564911355930874 -12.87909853245784 -0.1
v 57.85626280738536 -11.91923288960243 0
v 57.85626280738536 -11.91923288960243 -0.1
v 53.41036462605252 -20.54590542361885 0
v 53.41036462605252 -20.54590542361885 -0.1
v 50.41042649203391 -21.36680767331764 0
v 50.41042649203391 -21.36680767331764 -0.1
v 53.442071641877725 -16.99714679661132 0
v 53.442071641877725 -16.99714679661132 -0.1
v 54.001287393495915 -16.782924149085407 0
v 54.001287393495915 -16.782924149085407 -0.1
v 55.02602223067815 -16.12816020854449 0
v 55.02602223067815 -16.12816020854449 -0.1
v 49.81135950143914 -58.934514490927015 0
v 49.81135950143914 -58.934514490927015 -0.1
v 42.811730807571124 -66.10177482784091 0
v 42.811730807571124 -66.10177482784091 -0.1
v 47.1120576074618 -5.885658982826373 0
v 47.1120576074618 -5.885658982826373 -0.1
v 47.49833505933595 -5.573304641092609 0
v 47.49833505933595 -5.573304641092609 -0.1
v 47.97060963431084 -5.264379352071058 0
v 47.97060963431084 -5.264379352071058 -0.1
vt 3.0762519186800663 -106.22082003632563 0
vt 74.90838473094807 -106.0891428378826 0
vt 74.69731144641906 -0.40074803217704613 0
vt 2.8808243517657712 -0.5336245831986492 0
vt 10.497949754934213 -7.665312552223197 0
vt 10.666455303612427 -99.02729217268104 0
vt 18.9116219496053 -58.82928455892275 0
vt 18.81019295489304 -20.816544989155364 0
vt 12.733526091813665 -9.939856596721603 0
vt 10.756949720022147 -7.46014411444605 0
vt 22.97369575296893 -3.2677126522428295 0
vt 22.98058707962727 -7.004119261141243 0
vt 23.351875664181218 -6.897746735277866 0
vt 23.354130562852514 -3.2661059924439972 0
vt 39.20352652723289 -3.2068149958804253 0
vt 38.901008191729595 -3.3431062202445205 0
vt 38.7002268806206 -7.697106151260484 0
vt 41.4399193443802 -3.199021787138041 0
vt 44.18469547565441 -7.985041545276416 0
vt 41.7316083241029 -3.201990664156863 0
vt 51.39375061246966 -4.559554191534386 0
vt 50.75611100241591 -4.539236577176243 0
vt 52.042361634898135 -4.701638200591544 0
vt 50.11140181227012 -4.576253813976614 0
vt 49.25202394629273 -4.749771942483269 0
vt 46.77235202315583 -6.2050865949599405 0
vt 55.01871136842255 -6.451372651047046 0
vt 54.66699050059188 -6.08305764111117 0
vt 53.71280767759647 -5.350493905388437 0
vt 53.15703944321578 -5.05062387682979 0
vt 52.70894101219437 -4.868770392270297 0
vt 54.22209653290699 -5.693436978250337 0
vt 67.5024316660646 -15.165779174483376 0
vt 65.45307476625023 -15.169558952573508 0
vt 67.19736796674395 -15.41156347173109 0
vt 67.20669022910717 -20.465998478328608 0
vt 67.55624157859583 -54.505040093772 0
vt 53.52583936396541 -80.04456505809036 0
vt 50.71839952640529 -85.15494455543802 0
vt 53.56071433257192 -98.95341521813259 0
vt 34.758767338089015 -96.76031561181343 0
vt 34.74441325338975 -98.68612549542462 0
vt 34.744970241002676 -98.98811846444042 0
vt 29.467493257128254 -98.992616049974 0
vt 29.472558416737666 -98.75100504662612 0
vt 29.468889189675327 -96.7615877798229 0
vt 35.16777361570455 -85.18362570663743 0
vt 18.908865182693017 -61.89966698343319 0
vt 19.441576219040474 -58.82830712569159 0
vt 22.093943996088925 -52.718906916101474 0
vt 22.096810769823662 -51.51891034043621 0
vt 34.95729262626658 -31.37277887761238 0
vt 21.951811897295293 -20.810750672681195 0
vt 18.808783958347945 -20.052601518758042 0
vt 22.985966797829178 -9.920947274116784 0
vt 31.67111531124968 -13.842013849854231 0
vt 33.05225029788788 -13.034260082494457 0
vt 35.54009740129542 -7.53252304917997 0
vt 36.98848578267188 -4.32949180761901 0
vt 37.23217000537029 -4.223173969544993 0
vt 33.86000406524765 -14.415395069132655 0
vt 46.3732977960333 -21.355151759751845 0
vt 45.53273247942674 -8.02706168226338 0
vt 46.3791172709744 -6.635652735156898 0
vt 46.021786907345934 -7.116315300209358 0
vt 56.01741408608278 -8.01488318714699 0
vt 55.68664215111758 -7.359985121067449 0
vt 55.35615722527143 -6.851938318029538 0
vt 59.43137676233857 -10.096929917170183 0
vt 56.486917033399834 -10.10236059855698 0
vt 59.44607602847099 -10.30346818649832 0
vt 65.45352704484168 -15.414779764466573 0
vt 62.72362934277894 -20.44811898819688 0
vt 50.428859303643506 -31.360889006739608 0
vt 54.12722421658024 -54.52853151685347 0
vt 53.48010549477289 -55.24813041301642 0
vt 50.700066148127796 -75.21477495448443 0
vt 53.51056278218082 -71.76175915275302 0
vt 34.49513049725353 -96.56309251031307 0
vt 29.737969567021693 -96.57186648846053 0
vt 35.149402055742875 -75.22275438827018 0
vt 19.44723912017856 -61.898674021195426 0
vt 35.63448081202361 -58.96066194013979 0
vt 23.69393943030927 -52.72272928108113 0
vt 23.69680620404401 -51.52273270541586 0
vt 34.93885528412147 -21.37624113431776 0
vt 21.950434554886492 -20.06396975020996 0
vt 32.47886907860945 -15.22314883649243 0
vt 47.14334379197064 -22.655940221341307 0
vt 49.32883043968259 -21.36880253963957 0
vt 53.12913219738867 -17.090987063063437 0
vt 56.450127372246044 -9.572278452465422 0
vt 56.244177300004445 -8.609095929690435 0
vt 56.38124269613005 -9.121070973264096 0
vt 54.48701829212574 -16.462257573061894 0
vt 55.27876012981925 -15.901186447925776 0
vt 55.87740039960798 -15.393769285369341 0
vt 56.57553544245916 -14.64634462714251 0
vt 56.91432504603306 -14.119432167328595 0
vt 57.226478084936446 -13.59921086087473 0
vt 57.564911355930874 -12.87909853245784 0
vt 57.85626280738536 -11.91923288960243 0
vt 53.41036462605252 -20.54590542361885 0
vt 50.41042649203391 -21.36680767331764 0
vt 53.442071641877725 -16.99714679661132 0
vt 54.001287393495915 -16.782924149085407 0
vt 55.02602223067815 -16.12816020854449 0
vt 49.81135950143914 -58.934514490927015 0
vt 42.811730807571124 -66.10177482784091 0
vt 47.1120576074618 -5.885658982826373 0
vt 47.49833505933595 -5.573304641092609 0
vt 47.97060963431084 -5.264379352071058 0
vn 0 0 1
vn 0 0 -1
usemtl floor_1
s off
f 9/5/1 11/6/1 13/7/1
f 14/7/2 12/6/2 10/5/2
f 9/5/1 13/7/1 15/8/1
f 16/8/2 14/7/2 10/5/2
f 9/5/1 15/8/1 17/9/1
f 18/9/2 16/8/2 10/5/2
f 9/5/1 17/9/1 19/10/1
f 20/10/2 18/9/2 10/5/2
f 21/11/1 23/12/1 25/13/1
f 26/13/2 24/12/2 22/11/2
f 21/11/1 25/13/1 27/14/1
f 28/14/2 26/13/2 22/11/2
f 29/15/1 31/16/1 33/17/1
f 34/17/2 32/16/2 30/15/2
f 29/15/1 33/17/1 35/18/1
f 36/18/2 34/17/2 30/15/2
f 35/18/1 33/17/1 37/19/1
f 38/19/2 34/17/2 36/18/2
f 35/18/1 37/19/1 39/20/1
f 40/20/2 38/19/2 36/18/2
f 41/21/1 43/22/1 45/23/1
f 46/23/2 44/22/2 42/21/2
f 45/23/1 43/22/1 47/24/1
f 48/24/2 44/22/2 46/23/2
f 45/23/1 47/24/1 49/25/1
f 50/25/2 48/24/2 46/23/2
f 45/23/1 49/25/1 51/26/1
f 52/26/2 50/25/2 46/23/2
f 45/23/1 51/26/1 53/27/1
f 54/27/2 52/26/2 46/23/2
f 45/23/1 53/27/1 55/28/1
f 56/28/2 54/27/2 46/23/2
f 45/23/1 55/28/1 57/29/1
f 58/29/2 56/28/2 46/23/2
f 45/23/1 57/29/1 59/30/1
f 60/30/2 58/29/2 46/23/2
f 45/23/1 59/30/1 61/31/1
f 62/31/2 60/30/2 46/23/2
f 57/29/1 55/28/1 63/32/1
f 64/32/2 56/28/2 58/29/2
f 65/33/1 67/34/1 69/35/1
f 70/35/2 68/34/2 66/33/2
f 65/33/1 69/35/1 71/36/1
f 72/36/2 70/35/2 66/33/2
f 65/33/1 71/36/1 73/37/1
f 74/37/2 72/36/2 66/33/2
f 75/38/1 77/39/1 79/40/1
f 80/40/2 78/39/2 76/38/2
f 79/40/1 77/39/1 81/41/1
f 82/41/2 78/39/2 80/40/2
f 79/40/1 81/41/1 83/42/1
f 84/42/2 82/41/2 80/40/2
f 79/40/1 83/42/1 85/43/1
f 86/43/2 84/42/2 80/40/2
f 11/6/1 87/44/1 89/45/1
f 90/45/2 88/44/2 12/6/2
f 11/6/1 89/45/1 91/46/1
f 92/46/2 90/45/2 12/6/2
f 11/6/1 91/46/1 93/47/1
f 94/47/2 92/46/2 12/6/2
f 11/6/1 93/47/1 95/48/1
f 96/48/2 94/47/2 12/6/2
f 11/6/1 95/48/1 13/7/1
f 14/7/2 96/48/2 12/6/2
f 13/7/1 97/49/1 99/50/1
f 100/50/2 98/49/2 14/7/2
f 13/7/1 99/50/1 101/51/1
f 102/51/2 100/50/2 14/7/2
f 13/7/1 101/51/1 15/8/1
f 16/8/2 102/51/2 14/7/2
f 15/8/1 101/51/1 103/52/1
f 104/52/2 102/51/2 16/8/2
f 15/8/1 103/52/1 105/53/1
f 106/53/2 104/52/2 16/8/2
f 15/8/1 107/54/1 17/9/1
f 18/9/2 108/54/2 16/8/2
f 17/9/1 107/54/1 109/55/1
f 110/55/2 108/54/2 18/9/2
f 23/12/1 109/55/1 25/13/1
f 26/13/2 110/55/2 24/12/2
f 25/13/1 109/55/1 111/56/1
f 112/56/2 110/55/2 26/13/2
f 25/13/1 111/56/1 113/57/1
f 114/57/2 112/56/2 26/13/2
f 25/13/1 113/57/1 115/58/1
f 116/58/2 114/57/2 26/13/2
f 115/58/1 113/57/1 33/17/1
f 34/17/2 114/57/2 116/58/2
f 117/59/1 33/17/1 119/60/1
f 120/60/2 34/17/2 118/59/2
f 31/16/1 119/60/1 33/17/1
f 34/17/2 120/60/2 32/16/2
f 33/17/1 113/57/1 121/61/1
f 122/61/2 114/57/2 34/17/2
f 33/17/1 121/61/1 37/19/1
f 38/19/2 122/61/2 34/17/2
f 37/19/1 121/61/1 123/62/1
f 124/62/2 122/61/2 38/19/2
f 37/19/1 123/62/1 125/63/1
f 126/63/2 124/62/2 38/19/2
f 127/64/1 129/65/1 125/63/1
f 126/63/2 130/65/2 128/64/2
f 127/64/1 125/63/1 131/66/1
f 132/66/2 126/63/2 128/64/2
f 127/64/1 131/66/1 53/27/1
f 54/27/2 132/66/2 128/64/2
f 127/64/1 53/27/1 51/26/1
f 52/26/2 54/27/2 128/64/2
f 53/27/1 131/66/1 133/67/1
f 134/67/2 132/66/2 54/27/2
f 53/27/1 133/67/1 135/68/1
f 136/68/2 134/67/2 54/27/2
f 137/69/1 139/70/1 141/71/1
f 142/71/2 140/70/2 138/69/2
f 67/34/1 143/72/1 69/35/1
f 70/35/2 144/72/2 68/34/2
f 71/36/1 145/73/1 147/74/1
f 148/74/2 146/73/2 72/36/2
f 71/36/1 147/74/1 73/37/1
f 74/37/2 148/74/2 72/36/2
f 73/37/1 147/74/1 149/75/1
f 150/75/2 148/74/2 74/37/2
f 151/76/1 153/77/1 155/78/1
f 156/78/2 154/77/2 152/76/2
f 155/78/1 153/77/1 75/38/1
f 76/38/2 154/77/2 156/78/2
f 75/38/1 153/77/1 77/39/1
f 78/39/2 154/77/2 76/38/2
f 77/39/1 93/47/1 81/41/1
f 82/41/2 94/47/2 78/39/2
f 81/41/1 93/47/1 157/79/1
f 158/79/2 94/47/2 82/41/2
f 91/46/1 159/80/1 93/47/1
f 94/47/2 160/80/2 92/46/2
f 93/47/1 159/80/1 157/79/1
f 158/79/2 160/80/2 94/47/2
f 93/47/1 161/81/1 95/48/1
f 96/48/2 162/81/2 94/47/2
f 95/48/1 161/81/1 163/82/1
f 164/82/2 162/81/2 96/48/2
f 163/82/1 161/81/1 165/83/1
f 166/83/2 162/81/2 164/82/2
f 163/82/1 165/83/1 97/49/1
f 98/49/2 166/83/2 164/82/2
f 97/49/1 165/83/1 167/84/1
f 168/84/2 166/83/2 98/49/2
f 97/49/1 167/84/1 99/50/1
f 100/50/2 168/84/2 98/49/2
f 101/51/1 169/85/1 103/52/1
f 104/52/2 170/85/2 102/51/2
f 103/52/1 169/85/1 165/83/1
f 166/83/2 170/85/2 104/52/2
f 103/52/1 165/83/1 151/76/1
f 152/76/2 166/83/2 104/52/2
f 103/52/1 151/76/1 149/75/1
f 150/75/2 152/76/2 104/52/2
f 103/52/1 149/75/1 147/74/1
f 148/74/2 150/75/2 104/52/2
f 103/52/1 171/86/1 105/53/1
f 106/53/2 172/86/2 104/52/2
f 105/53/1 171/86/1 173/87/1
f 174/87/2 172/86/2 106/53/2
f 173/87/1 171/86/1 175/88/1
f 176/88/2 172/86/2 174/87/2
f 173/87/1 175/88/1 111/56/1
f 112/56/2 176/88/2 174/87/2
f 173/87/1 111/56/1 109/55/1
f 110/55/2 112/56/2 174/87/2
f 173/87/1 109/55/1 107/54/1
f 108/54/2 110/55/2 174/87/2
f 121/61/1 175/88/1 171/86/1
f 172/86/2 176/88/2 122/61/2
f 121/61/1 171/86/1 123/62/1
f 124/62/2 172/86/2 122/61/2
f 123/62/1 177/89/1 179/90/1
f 180/90/2 178/89/2 124/62/2
f 123/62/1 179/90/1 181/91/1
f 182/91/2 180/90/2 124/62/2
f 123/62/1 181/91/1 125/63/1
f 126/63/2 182/91/2 124/62/2
f 125/63/1 181/91/1 139/70/1
f 140/70/2 182/91/2 126/63/2
f 125/63/1 139/70/1 131/66/1
f 132/66/2 140/70/2 126/63/2
f 131/66/1 139/70/1 183/92/1
f 184/92/2 140/70/2 132/66/2
f 131/66/1 183/92/1 185/93/1
f 186/93/2 184/92/2 132/66/2
f 185/93/1 183/92/1 187/94/1
f 188/94/2 184/92/2 186/93/2
f 139/70/1 181/91/1 189/95/1
f 190/95/2 182/91/2 140/70/2
f 139/70/1 189/95/1 191/96/1
f 192/96/2 190/95/2 140/70/2
f 139/70/1 191/96/1 193/97/1
f 194/97/2 192/96/2 140/70/2
f 139/70/1 193/97/1 195/98/1
f 196/98/2 194/97/2 140/70/2
f 139/70/1 195/98/1 197/99/1
f 198/99/2 196/98/2 140/70/2
f 139/70/1 197/99/1 199/100/1
f 200/100/2 198/99/2 140/70/2
f 139/70/1 199/100/1 201/101/1
f 202/101/2 200/100/2 140/70/2
f 139/70/1 201/101/1 203/102/1
f 204/102/2 202/101/2 140/70/2
f 139/70/1 203/102/1 141/71/1
f 142/71/2 204/102/2 140/70/2
f 145/73/1 205/103/1 147/74/1
f 148/74/2 206/103/2 146/73/2
f 147/74/1 205/103/1 207/104/1
f 208/104/2 206/103/2 148/74/2
f 179/90/1 207/104/1 181/91/1
f 182/91/2 208/104/2 180/90/2
f 181/91/1 207/104/1 205/103/1
f 206/103/2 208/104/2 182/91/2
f 181/91/1 209/105/1 189/95/1
f 190/95/2 210/105/2 182/91/2
f 189/95/1 209/105/1 211/106/1
f 212/106/2 210/105/2 190/95/2
f 189/95/1 213/107/1 191/96/1
f 192/96/2 214/107/2 190/95/2
f 151/76/1 165/83/1 215/108/1
f 216/108/2 166/83/2 152/76/2
f 151/76/1 215/108/1 153/77/1
f 154/77/2 216/108/2 152/76/2
f 153/77/1 215/108/1 217/109/1
f 218/109/2 216/108/2 154/77/2
f 153/77/1 217/109/1 161/81/1
f 162/81/2 218/109/2 154/77/2
f 161/81/1 217/109/1 165/83/1
f 166/83/2 218/109/2 162/81/2
f 165/83/1 169/85/1 167/84/1
f 168/84/2 170/85/2 166/83/2
f 51/26/1 49/25/1 219/110/1
f 220/110/2 50/25/2 52/26/2
f 219/110/1 49/25/1 221/111/1
f 222/111/2 50/25/2 220/110/2
f 221/111/1 49/25/1 223/112/1
f 224/112/2 50/25/2 222/111/2
