# The Great Editor v0.0.1
mtllib floor_1.mtl
o floor_1
v 0.23829435680480565 -0.13177529629776685 0
v 0.23829435680480565 -0.13177529629776685 -0.1
v 10.023476897085978 -0.15209161159213047 0
v 10.023476897085978 -0.15209161159213047 -0.1
v 9.989946170190027 -7.319758843741179 0
v 9.989946170190027 -7.319758843741179 -0.1
v 0.10107471242580175 -7.3020665005618595 0
v 0.10107471242580175 -7.3020665005618595 -0.1
v 7.271328116945108 -3.014664241978535 0
v 7.271328116945108 -3.014664241978535 -0.1
v 7.253672897474095 -0.9147384591887171 0
v 7.253672897474095 -0.9147384591887171 -0.1
v 9.353598680263913 -0.8970832397177051 0
v 9.353598680263913 -0.8970832397177051 -0.1
v 9.371253899734926 -2.9970090225075228 0
v 9.371253899734926 -2.9970090225075228 -0.1
vt 0.23829435680480565 -0.13177529629776685 0
vt 10.023476897085978 -0.15209161159213047 0
vt 9.989946170190027 -7.319758843741179 0
vt 0.10107471242580175 -7.3020665005618595 0
vt 7.271328116945108 -3.014664241978535 0
vt 7.253672897474095 -0.9147384591887171 0
vt 9.353598680263913 -0.8970832397177051 0
vt 9.371253899734926 -2.9970090225075228 0
vn 0 0 1
vn 0 0 -1
usemtl floor_1
s off
f 1/1/1 7/4/1 9/5/1
f 10/5/2 8/4/2 2/1/2
f 1/1/1 9/5/1 11/6/1
f 12/6/2 10/5/2 2/1/2
f 1/1/1 11/6/1 3/2/1
f 4/2/2 12/6/2 2/1/2
f 3/2/1 11/6/1 13/7/1
f 14/7/2 12/6/2 4/2/2
f 3/2/1 13/7/1 15/8/1
f 16/8/2 14/7/2 4/2/2
f 3/2/1 15/8/1 5/3/1
f 6/3/2 16/8/2 4/2/2
f 5/3/1 15/8/1 9/5/1
f 10/5/2 16/8/2 6/3/2
f 5/3/1 9/5/1 7/4/1
f 8/4/2 10/5/2 6/3/2
