# The Great Editor v0.0.1
mtllib floor_1.mtl
o floor_1
v 10.999496607771093 -33.79283370186943 0
v 10.999496607771093 -33.79283370186943 -0.1
v 31.94382762075128 -33.60418051448547 0
v 31.94382762075128 -33.60418051448547 -0.1
v 32.083400135992285 -45.1385956257359 0
v 32.083400135992285 -45.1385956257359 -0.1
v 11.02231609058892 -45.35345999518244 0
v 11.02231609058892 -45.35345999518244 -0.1
vt 10.999496607771093 -33.79283370186943 0
vt 31.94382762075128 -33.60418051448547 0
vt 32.083400135992285 -45.1385956257359 0
vt 11.02231609058892 -45.35345999518244 0
vn 0 0 1
vn 0 0 -1
usemtl floor_1
s off
f 1/1/1 7/4/1 5/3/1
f 6/3/2 8/4/2 2/1/2
f 1/1/1 5/3/1 3/2/1
f 4/2/2 6/3/2 2/1/2
